<svg width="148.000000" height="66.000000" viewBox="0 0 148 66" fill="none" xmlns="http://www.w3.org/2000/svg" xmlns:xlink="http://www.w3.org/1999/xlink">
	<desc>
			Created with Pixso.
	</desc>
	<defs/>
	<path id="167" d="M5.39 55.25L17.97 55.25L17.97 22.34Q17.97 19.92 18.1 17.28L10.69 23.41C10.21 23.8 9.73 24.08 9.25 24.26C8.77 24.41 8.31 24.49 7.86 24.49Q6.81 24.49 5.95 24.09Q5.84 24.05 5.75 24C5.15 23.64 4.7 23.26 4.4 22.88L0 17.05L20.39 0L31.89 0L31.89 55.25L42.67 55.25L42.67 65.28L5.39 65.28L5.39 55.25ZM77.09 23.95C79.46 23.95 81.8 24.34 84.1 25.11C86.41 25.89 88.48 27.08 90.3 28.7C92.13 30.31 93.6 32.35 94.71 34.83Q96.41 38.5 96.41 43.52Q96.41 46.52 95.68 49.32L95.68 49.32Q95.29 50.79 94.71 52.2Q93.83 54.3 92.57 56.13Q91.38 57.87 89.85 59.37C87.79 61.4 85.29 63.01 82.35 64.2C79.42 65.4 76.17 66 72.6 66C68.95 66 65.67 65.43 62.76 64.29C59.86 63.13 57.39 61.52 55.35 59.46Q54.95 59.04 54.57 58.61Q52.12 55.79 50.72 52.07C49.68 49.2 49.15 46.05 49.15 42.62Q49.15 42.32 49.16 42.03L49.16 42.02Q49.27 37.44 51.04 32.91C52.3 29.68 54.15 26.4 56.61 23.05L71.34 3.22C72 2.32 72.99 1.58 74.31 0.98Q76.29 0.04 78.8 0.04L91.2 0.04L71.79 23.14C71.49 23.47 71.19 23.82 70.9 24.17L70.09 25.16C71.13 24.77 72.23 24.47 73.37 24.26Q75.12 23.95 77.09 23.95ZM148 5.86L148 0.04L101.99 0.04L101.99 9.17Q101.99 9.76 102.26 10.34C102.44 10.7 102.67 11.02 102.93 11.32C103.23 11.59 103.56 11.82 103.92 12C104.31 12.14 104.72 12.22 105.14 12.22L133.93 12.22C133.07 13.14 132.26 14.11 131.51 15.13C130.79 16.14 130.12 17.29 129.49 18.58L106.12 65.28L116.28 65.28C118.19 65.28 119.74 64.85 120.91 63.98C122.07 63.08 122.96 62 123.56 60.71L146.42 12.44C146.75 11.73 147.1 10.86 147.46 9.85C147.82 8.83 148 7.5 148 5.86ZM62.54 44.5C62.54 46.11 62.73 47.56 63.12 48.85C63.51 50.13 64.11 51.23 64.92 52.16C65.73 53.08 66.75 53.8 67.97 54.31C69.2 54.79 70.66 55.02 72.33 55.02C73.77 55.02 75.1 54.76 76.33 54.22C77.59 53.68 78.67 52.95 79.57 52.02C80.46 51.07 81.17 49.97 81.68 48.71Q81.73 48.58 81.78 48.45Q82.49 46.64 82.49 44.55C82.49 42.88 82.23 41.38 81.72 40.07C81.24 38.76 80.55 37.65 79.66 36.76C78.76 35.86 77.66 35.17 76.38 34.7C75.12 34.22 73.71 33.98 72.15 33.98C70.75 33.98 69.46 34.23 68.29 34.74C67.12 35.22 66.1 35.92 65.23 36.85C64.4 37.77 63.74 38.88 63.26 40.16C62.78 41.44 62.54 42.89 62.54 44.5Z" fill="#8A7B60" fill-opacity="1.000000" fill-rule="evenodd"/>
</svg>
