<svg width="260" height="416" viewBox="0 0 260 416" fill="none" xmlns="http://www.w3.org/2000/svg"><g clip-path="url(#clip0_1_15)"><path d="M174.395 356.77c1.647-1.07 1.784-3.778.305-6.05-1.478-2.272-4.012-3.247-5.66-2.178-1.646 1.07-1.783 3.777-.304 6.05 1.478 2.27 4.012 3.246 5.66 2.177z" fill="white"/><path d="M92.184 316.366c1.61-.668 2.312-2.664 1.566-4.458-.745-1.794-2.656-2.706-4.267-2.038-1.611.668-2.312 2.664-1.567 4.458.746 1.793 2.657 2.706 4.268 2.038z" fill="white"/><path d="M189.845 412.946c.276-2.11-2.587-4.222-6.394-4.72-3.807-.497-7.117.81-7.394 2.92-.276 2.11 2.587 4.222 6.395 4.72 3.808.497 7.12-.81 7.395-2.92z" fill="white"/><path d="M69.46 9.347c.766-2.631.074-5.145-1.546-5.615-1.62-.47-3.552 1.282-4.318 3.914-.765 2.631-.073 5.145 1.546 5.615 1.62.471 3.553-1.281 4.319-3.913z" fill="white"/><path d="M104.132 23.838c3.724 0 6.743-1.674 6.743-3.74s-3.02-3.74-6.743-3.74c-3.724 0-6.743 1.674-6.743 3.74-.001 2.066 3.018 3.74 6.742 3.74z" fill="white"/><path d="M121.178 23.983c2.093-3.16 2.148-6.806.123-8.143-2.023-1.337-5.36.14-7.454 3.3-2.093 3.16-2.148 6.806-.123 8.143 2.025 1.337 5.363-.14 7.455-3.3z" fill="white"/><path d="M42.285 5.19c.663-2.28-.272-4.556-2.088-5.083-1.816-.527-3.825.894-4.489 3.174-.663 2.281.272 4.557 2.088 5.083 1.815.527 3.825-.894 4.488-3.174z" fill="white"/><path d="M76.923 7.993c1.504-.977 1.63-3.45.28-5.525C75.853.394 73.537-.497 72.033.48c-1.504.977-1.63 3.45-.28 5.525 1.35 2.074 3.665 2.965 5.17 1.988z" fill="white"/><path d="M74.973 92.195c.814-1.524-.462-3.79-2.85-5.06-2.387-1.271-4.982-1.066-5.795.457-.813 1.524.463 3.79 2.85 5.06 2.387 1.271 4.982 1.066 5.795-.457z" fill="white"/><path d="M147.998 375.38c1.567-3.573 1.055-7.25-1.144-8.21-2.2-.962-5.252 1.154-6.818 4.727-1.567 3.573-1.055 7.25 1.144 8.21 2.2.962 5.252-1.155 6.818-4.727z" fill="white"/><path d="M124.9 370.506c.997-2.27.468-4.694-1.18-5.415-1.646-.72-3.79.537-4.784 2.807-.996 2.27-.467 4.695 1.18 5.415 1.647.72 3.79-.536 4.785-2.806z" fill="white"/><path d="M172.016 362.51c.943-2.15.317-4.502-1.398-5.252-1.714-.75-3.868.385-4.81 2.536-.944 2.15-.318 4.5 1.396 5.25 1.715.75 3.87-.385 4.812-2.535z" fill="white"/><path d="M76.949 242.388c1.27-1.094.855-3.66-.93-5.73-1.786-2.07-4.265-2.862-5.537-1.77-1.272 1.095-.856 3.66.93 5.732 1.785 2.07 4.263 2.862 5.535 1.768z" fill="white"/><path d="M99.033 298.48c.84-2.892.08-5.654-1.698-6.17-1.78-.516-3.903 1.41-4.744 4.3-.84 2.89-.08 5.652 1.7 6.168 1.778.516 3.902-1.41 4.743-4.3z" fill="white"/><path d="M180.15 300.03c1.682-1.678.69-5.39-2.213-8.29-2.904-2.9-6.62-3.89-8.3-2.21-1.682 1.68-.69 5.39 2.213 8.29s6.62 3.89 8.3 2.21z" fill="white"/><path d="M189.388 193.874c2.535-2.532 1.04-8.13-3.34-12.504-4.38-4.374-9.986-5.868-12.52-3.336-2.536 2.532-1.04 8.13 3.34 12.504 4.38 4.374 9.985 5.868 12.52 3.336z" fill="white"/><path d="M162.325 259.59c.055-1.308-1.69-2.446-3.9-2.54-2.21-.093-4.046.892-4.1 2.202-.057 1.31 1.69 2.446 3.9 2.54 2.208.093 4.044-.892 4.1-2.2z" fill="white"/><path d="M118.45 308.947c.688-2.365-.145-4.686-1.86-5.184-1.717-.497-3.666 1.016-4.354 3.38-.688 2.366.145 4.687 1.86 5.185 1.717.498 3.666-1.016 4.354-3.38z" fill="white"/><path d="M184.51 156.33c.654-2.247-.135-4.45-1.762-4.923-1.627-.472-3.475.967-4.13 3.214-.652 2.247.137 4.45 1.764 4.923 1.626.472 3.475-.967 4.13-3.213z" fill="white"/><path d="M153.506 262.548c1.217-3.232-1.903-7.394-6.967-9.295-5.066-1.9-10.158-.822-11.375 2.41-1.216 3.233 1.903 7.394 6.968 9.296 5.065 1.9 10.157.82 11.373-2.412z" fill="white"/><path d="M111.263 271.507c1.79-2.704 1.838-5.823.107-6.967-1.732-1.143-4.587.12-6.378 2.824-1.79 2.704-1.838 5.823-.106 6.967 1.732 1.144 4.587-.12 6.377-2.823z" fill="white"/><path d="M114.063 293.674c1.728-1.12 1.87-3.967.315-6.355-1.554-2.39-4.215-3.416-5.943-2.294-1.728 1.12-1.87 3.967-.314 6.355 1.555 2.39 4.215 3.416 5.943 2.294z" fill="white"/><path d="M118.43 325.303c2.006-1.726 1.352-5.77-1.46-9.03-2.813-3.263-6.72-4.51-8.726-2.784-2.006 1.724-1.352 5.767 1.46 9.03 2.813 3.262 6.72 4.508 8.726 2.783z" fill="white"/><path d="M196.023 371.634c2-1.998.82-6.414-2.633-9.864-3.455-3.45-7.877-4.628-9.878-2.63-2 1.997-.82 6.414 2.634 9.864 3.455 3.45 7.877 4.628 9.877 2.63z" fill="white"/><path d="M98.834 326.423c1.877-1.218 2.038-4.296.36-6.874-1.679-2.58-4.56-3.683-6.438-2.465-1.876 1.218-2.037 4.296-.36 6.875 1.68 2.58 4.56 3.682 6.438 2.463z" fill="white"/><path d="M155.304 357.01c3.828 0 6.932-1.72 6.932-3.844s-3.104-3.845-6.932-3.845c-3.83 0-6.932 1.722-6.932 3.846s3.103 3.845 6.932 3.845z" fill="white"/><path d="M136.003 354.474c.637-2.187-.133-4.333-1.72-4.794-1.586-.46-3.387.94-4.024 3.128-.637 2.187.133 4.333 1.72 4.793 1.585.462 3.387-.94 4.023-3.126z" fill="white"/><path d="M127.07 323.202c2.024-3.048 2.082-6.566.13-7.857-1.95-1.29-5.17.134-7.194 3.182-2.022 3.05-2.08 6.567-.13 7.858 1.95 1.29 5.172-.134 7.195-3.183z" fill="white"/><path d="M136.583 345.192c1.683-1.08 1.834-3.84.337-6.164-1.496-2.325-4.073-3.334-5.755-2.253-1.683 1.08-1.834 3.84-.337 6.164 1.496 2.324 4.073 3.332 5.755 2.252z" fill="white"/><path d="M157.963 348.14c2.85-.592 4.845-2.577 4.46-4.433-.388-1.857-3.01-2.882-5.86-2.29-2.85.59-4.845 2.574-4.46 4.43.388 1.858 3.01 2.883 5.86 2.292z" fill="white"/><path d="M170.045 267.654c1.444-1.11 1.06-4.03-.86-6.522-1.92-2.493-4.646-3.616-6.09-2.507-1.445 1.11-1.06 4.03.86 6.522 1.92 2.493 4.646 3.616 6.09 2.507z" fill="white"/><path d="M193.658 290.446c.748-1.4-.43-3.487-2.63-4.658-2.2-1.17-4.59-.985-5.337.417-.747 1.4.43 3.486 2.63 4.657 2.2 1.172 4.59.985 5.338-.416z" fill="white"/><path d="M201.843 308.994c2.702-.202 4.785-1.792 4.653-3.553-.132-1.76-2.43-3.022-5.13-2.82-2.702.202-4.785 1.792-4.653 3.553.132 1.76 2.43 3.023 5.13 2.82z" fill="white"/><path d="M83.718 303.36c1.41-.924 1.333-3.53-.172-5.822-1.506-2.29-3.869-3.4-5.279-2.475-1.41.924-1.333 3.53.173 5.82 1.505 2.292 3.868 3.4 5.278 2.476z" fill="white"/><path d="M75.027 283.19c2.344-5.345 1.58-10.844-1.709-12.28-3.287-1.44-7.853 1.728-10.197 7.073-2.342 5.345-1.577 10.844 1.71 12.282 3.288 1.437 7.853-1.73 10.197-7.075z" fill="white"/><path d="M81.673 292.205c.908-2.07.308-4.33-1.34-5.05-1.647-.72-3.718.372-4.625 2.44-.907 2.07-.307 4.33 1.34 5.05 1.647.722 3.718-.37 4.625-2.44z" fill="white"/><path d="M189.507 133.234c.97-2.21.327-4.626-1.433-5.396s-3.974.397-4.943 2.607c-.968 2.21-.326 4.626 1.434 5.396s3.973-.396 4.943-2.606z" fill="white"/><path d="M181.63 228.752c1.878-1.614 1.267-5.397-1.364-8.45-2.632-3.05-6.287-4.216-8.165-2.602-1.876 1.615-1.265 5.398 1.367 8.45 2.63 3.052 6.286 4.217 8.164 2.602z" fill="white"/><path d="M198.73 173.296c.744-2.557.074-5-1.498-5.456-1.57-.456-3.448 1.248-4.192 3.805-.744 2.558-.073 5 1.498 5.457 1.57.456 3.448-1.248 4.192-3.806z" fill="white"/><path d="M262.563 174.782c1.313-1.31.536-4.21-1.734-6.48-2.272-2.266-5.176-3.042-6.49-1.73-1.31 1.31-.535 4.21 1.735 6.478 2.27 2.268 5.176 3.043 6.488 1.732z" fill="white"/><path d="M227.156 132.703c.06-1.413-1.823-2.64-4.206-2.742-2.383-.1-4.363.964-4.423 2.377-.06 1.413 1.823 2.64 4.206 2.742 2.383.1 4.363-.964 4.423-2.377z" fill="white"/><path d="M236.81 184.406c6.248 0 11.313-2.81 11.313-6.274 0-3.465-5.065-6.273-11.313-6.273-6.248 0-11.314 2.807-11.314 6.272s5.066 6.274 11.314 6.274z" fill="white"/><path d="M208.932 178.953c.662-2.276-.138-4.51-1.787-4.987-1.65-.48-3.523.978-4.185 3.255-.662 2.277.138 4.51 1.787 4.988 1.65.48 3.523-.978 4.185-3.255z" fill="white"/><path d="M245.94 137.572c.606-1.606-.946-3.673-3.464-4.618-2.517-.946-5.048-.41-5.653 1.195-.604 1.605.947 3.672 3.465 4.617 2.518.945 5.05.41 5.653-1.195z" fill="white"/><path d="M191.97 258.742c1.374-4.723-.56-9.436-4.323-10.527-3.762-1.092-7.925 1.852-9.3 6.575-1.373 4.722.563 9.435 4.325 10.527 3.76 1.09 7.924-1.853 9.298-6.575z" fill="white"/><path d="M244.09 158.545c2.783-.578 4.735-2.518 4.357-4.333-.378-1.815-2.94-2.818-5.726-2.24-2.784.578-4.735 2.518-4.358 4.333.378 1.815 2.942 2.818 5.727 2.24z" fill="white"/><path d="M218.724 224.904c.77-2.643.073-5.167-1.554-5.64-1.627-.472-3.57 1.288-4.338 3.93-.77 2.643-.073 5.168 1.554 5.64 1.627.472 3.57-1.287 4.338-3.93z" fill="white"/><path d="M185.98 42.325c.76-2.605.076-5.094-1.525-5.559-1.6-.464-3.514 1.271-4.272 3.877-.758 2.606-.074 5.094 1.527 5.559 1.6.464 3.513-1.271 4.27-3.877z" fill="white"/><path d="M206.156 290.906c.758-5.786-1.237-10.817-4.455-11.237-3.217-.422-6.44 3.928-7.198 9.714-.758 5.786 1.237 10.817 4.455 11.237 3.22.42 6.442-3.928 7.2-9.714z" fill="white"/><path d="M213.983 327.91c.63-2.168-.135-4.297-1.71-4.754-1.575-.457-3.363.93-3.994 3.1-.632 2.17.133 4.297 1.71 4.754 1.574.457 3.362-.93 3.993-3.1z" fill="white"/><path d="M240.348 282.03c1.376-1.374.566-4.41-1.808-6.78-2.374-2.372-5.414-3.18-6.79-1.807-1.375 1.374-.565 4.41 1.81 6.78 2.373 2.37 5.413 3.18 6.788 1.806z" fill="white"/><path d="M248.05 286.874c.602-1.602-.944-3.665-3.455-4.607-2.51-.942-5.035-.408-5.637 1.194-.603 1.603.943 3.665 3.454 4.608 2.51.942 5.035.408 5.638-1.194z" fill="white"/><path d="M249.274 380.034c1.307-1.305.533-4.195-1.73-6.454-2.262-2.26-5.155-3.032-6.463-1.727-1.306 1.305-.53 4.195 1.73 6.454 2.263 2.26 5.157 3.033 6.464 1.727z" fill="white"/><path d="M257.095 385.043c.592-1.573-.925-3.598-3.39-4.523-2.463-.925-4.94-.4-5.532 1.174-.592 1.572.926 3.597 3.39 4.522 2.463.925 4.94.4 5.532-1.173z" fill="white"/><path d="M190.537 212.913c1.32-1.32.54-4.238-1.744-6.52-2.284-2.28-5.206-3.06-6.527-1.74-1.32 1.32-.54 4.237 1.744 6.518 2.284 2.282 5.207 3.062 6.527 1.743z" fill="white"/><path d="M198.294 217.878c.59-1.565-.92-3.58-3.374-4.502-2.453-.92-4.92-.398-5.51 1.168-.588 1.566.923 3.582 3.376 4.502 2.453.92 4.92.398 5.508-1.168z" fill="white"/><path d="M97.713 64.832c1.27-1.267.522-4.068-1.67-6.257-2.19-2.188-4.996-2.935-6.265-1.667-1.27 1.267-.521 4.068 1.67 6.257 2.191 2.188 4.997 2.935 6.265 1.667z" fill="white"/><path d="M105.735 70.018c.602-1.598-.94-3.656-3.443-4.596-2.504-.94-5.02-.405-5.622 1.193-.602 1.598.94 3.655 3.443 4.595 2.504.94 5.02.406 5.622-1.192z" fill="white"/><path d="M229.01 195.487c1.803-2.722 1.853-5.862.112-7.012-1.742-1.15-4.615.124-6.418 2.847-1.804 2.723-1.854 5.863-.112 7.013 1.74 1.15 4.615-.125 6.418-2.848z" fill="white"/><path d="M204.206 194.204c1.163-3.997-.475-7.986-3.658-8.91-3.184-.924-6.707 1.568-7.87 5.565-1.163 3.996.475 7.985 3.66 8.91 3.182.923 6.706-1.57 7.868-5.566z" fill="white"/><path d="M237.23 215.38c1.69-1.098 1.83-3.875.314-6.205-1.517-2.33-4.115-3.33-5.804-2.234-1.69 1.097-1.83 3.875-.313 6.205 1.516 2.33 4.114 3.33 5.804 2.234z" fill="white"/><path d="M71.534 22.73c1.413-1.086 1.038-3.942-.84-6.38-1.876-2.44-4.544-3.536-5.957-2.45-1.414 1.084-1.038 3.94.839 6.38 1.877 2.437 4.544 3.534 5.958 2.45z" fill="white"/><path d="M197.147 100.832c1.01-2.302.475-4.76-1.194-5.49-1.668-.73-3.84.545-4.85 2.847-1.008 2.3-.474 4.758 1.195 5.488 1.67.73 3.84-.545 4.85-2.846z" fill="white"/><path d="M206.94 110.846c2.574-1.23 3.28-5.106 1.577-8.66-1.702-3.552-5.168-5.436-7.74-4.207-2.573 1.229-3.278 5.106-1.576 8.66 1.703 3.552 5.17 5.436 7.74 4.206z" fill="white"/><path d="M47.013 52.268c1.817-1.19 1.717-4.549-.222-7.5-1.938-2.952-4.983-4.38-6.8-3.19-1.816 1.19-1.717 4.549.222 7.5 1.94 2.952 4.984 4.38 6.8 3.19z" fill="white"/><path d="M254.426 217.526c.676-2.317-.136-4.59-1.814-5.08-1.678-.488-3.587.993-4.264 3.31-.676 2.315.136 4.59 1.814 5.078 1.678.49 3.587-.992 4.264-3.308z" fill="white"/><path d="M249.106 226.912c1.387-.91 1.31-3.475-.17-5.73-1.483-2.256-3.81-3.347-5.197-2.438-1.388.91-1.312 3.474.17 5.73s3.808 3.347 5.196 2.438z" fill="white"/><path d="M108.353 339.21c.672-2.308-.142-4.574-1.817-5.06-1.675-.486-3.577.992-4.25 3.3-.67 2.31.142 4.577 1.817 5.063 1.675.486 3.578-.992 4.25-3.302z" fill="white"/><path d="M103.25 348.928c1.4-.917 1.322-3.508-.175-5.786-1.497-2.278-3.845-3.38-5.246-2.464-1.4.918-1.323 3.508.174 5.787 1.497 2.278 3.845 3.38 5.246 2.463z" fill="white"/><path d="M273.093 158.395c1.59-1.963.09-5.806-3.35-8.583-3.438-2.777-7.515-3.437-9.104-1.475-1.59 1.963-.09 5.806 3.348 8.583 3.44 2.777 7.515 3.438 9.105 1.475z" fill="white"/><path d="M18.003 112.118c1.554-1.193 1.14-4.336-.925-7.018-2.065-2.683-5-3.89-6.553-2.697-1.555 1.193-1.14 4.335.924 7.018 2.064 2.684 4.999 3.89 6.553 2.698z" fill="white"/><path d="M31.033 100.404c.31-2.362-2.896-4.728-7.159-5.285-4.263-.557-7.97.906-8.279 3.268-.309 2.36 2.896 4.727 7.16 5.284 4.262.557 7.969-.907 8.278-3.268z" fill="white"/><path d="M128.22 342.203c1.848-4.212.87-8.71-2.185-10.045-3.054-1.336-7.028.995-8.875 5.207-1.847 4.212-.868 8.71 2.187 10.045 3.054 1.336 7.027-.996 8.874-5.207z" fill="white"/><path d="M118.397 357.926c2.332-1.115 2.973-4.628 1.43-7.847-1.542-3.22-4.683-4.927-7.016-3.813-2.33 1.115-2.972 4.628-1.43 7.848 1.543 3.22 4.684 4.925 7.017 3.81z" fill="white"/><path d="M239.53 235.97c1.785-4.066.84-8.408-2.108-9.697-2.948-1.29-6.784.962-8.568 5.03-1.783 4.066-.84 8.408 2.11 9.698 2.948 1.29 6.784-.962 8.567-5.03z" fill="white"/><path d="M229.852 251.68c2.29-1.095 2.92-4.544 1.406-7.705-1.514-3.16-4.598-4.834-6.89-3.74-2.29 1.095-2.92 4.544-1.405 7.704 1.514 3.16 4.6 4.834 6.89 3.74z" fill="white"/><path d="M212.982 130.113c1.81-4.127.85-8.534-2.145-9.844-2.994-1.31-6.888.974-8.698 5.1-1.81 4.128-.85 8.535 2.144 9.845 2.994 1.31 6.888-.975 8.698-5.102z" fill="white"/><path d="M203.035 145.386c2.13-1.018 2.716-4.228 1.307-7.17-1.41-2.94-4.28-4.5-6.41-3.482-2.13 1.02-2.715 4.228-1.306 7.17 1.41 2.94 4.28 4.5 6.41 3.482z" fill="white"/><path d="M230.182 157.446c1.847-4.212.868-8.71-2.187-10.045-3.054-1.335-7.027.997-8.874 5.21-1.846 4.21-.867 8.708 2.187 10.043 3.054 1.336 7.028-.995 8.875-5.207z" fill="white"/><path d="M220.142 172.718c2.148-1.027 2.737-4.263 1.316-7.228-1.42-2.966-4.313-4.538-6.46-3.512-2.15 1.027-2.74 4.263-1.318 7.228 1.42 2.966 4.314 4.538 6.462 3.512z" fill="white"/><path d="M125.81 141.474c1.313-2.993.617-6.19-1.553-7.14-2.17-.948-4.994.71-6.307 3.703-1.313 2.994-.618 6.19 1.553 7.14 2.17.95 4.994-.71 6.307-3.703z" fill="white"/><path d="M147.142 95.276c1.313-2.994.617-6.19-1.553-7.14-2.172-.95-4.996.708-6.31 3.702-1.31 2.994-.616 6.19 1.555 7.14 2.17.949 4.994-.708 6.307-3.702z" fill="white"/><path d="M249.07 95.687c.623-2.13-.125-4.223-1.67-4.673-1.545-.45-3.302.913-3.924 3.044-.623 2.13.125 4.223 1.67 4.673 1.545.451 3.302-.912 3.924-3.043z" fill="white"/><path d="M221.73 245.363c.616-1.637-.967-3.747-3.535-4.71-2.57-.965-5.15-.42-5.767 1.22-.616 1.637.966 3.746 3.534 4.71 2.57.964 5.15.418 5.767-1.22z" fill="white"/><path d="M202.48 238.772c1.373-1.055 1.005-3.834-.823-6.208-1.827-2.375-4.423-3.444-5.796-2.39-1.373 1.055-1.005 3.835.822 6.21 1.828 2.373 4.423 3.443 5.797 2.388z" fill="white"/><path d="M203.327 251.85c.842-1.578-.482-3.926-2.958-5.244-2.477-1.318-5.167-1.107-6.01.47-.842 1.58.483 3.927 2.96 5.245 2.474 1.32 5.164 1.108 6.007-.47z" fill="white"/><path d="M251.83 328.264c1.414-4.86-.58-9.71-4.452-10.833-3.873-1.123-8.16 1.906-9.573 6.765-1.413 4.86.58 9.71 4.453 10.834 3.873 1.122 8.158-1.906 9.572-6.766z" fill="white"/><path d="M262.52 320.454c.78-1.466-.448-3.646-2.747-4.87-2.3-1.224-4.797-1.027-5.58.438-.782 1.466.448 3.647 2.746 4.87 2.298 1.224 4.796 1.028 5.58-.438z" fill="white"/><path d="M205.35 268.155c2.636-.197 4.67-1.75 4.54-3.468-.13-1.718-2.37-2.95-5.006-2.754-2.637.197-4.67 1.75-4.54 3.468.128 1.72 2.37 2.952 5.006 2.755z" fill="white"/><path d="M189.8 84.23c1.215-1.212.498-3.894-1.6-5.99-2.1-2.095-4.785-2.811-6-1.598-1.214 1.212-.497 3.894 1.602 5.99 2.098 2.096 4.784 2.812 5.998 1.599z" fill="white"/><path d="M198.718 120.632c1.247-1.245.508-4.002-1.65-6.158-2.16-2.156-4.92-2.894-6.167-1.648-1.246 1.245-.507 4.003 1.65 6.158 2.16 2.156 4.92 2.894 6.168 1.648z" fill="white"/><path d="M171.124 245.412c3.54 0 6.408-1.59 6.408-3.552s-2.87-3.552-6.408-3.552c-3.54 0-6.408 1.59-6.408 3.552 0 1.96 2.87 3.552 6.408 3.552z" fill="white"/><path d="M191.807 90.483c.607-1.612-.948-3.688-3.473-4.636-2.525-.948-5.064-.41-5.67 1.204-.608 1.613.947 3.69 3.472 4.637 2.525.948 5.064.409 5.67-1.204z" fill="white"/><path d="M181.422 123.45c3.922-.814 6.67-3.545 6.14-6.1-.533-2.554-4.143-3.965-8.065-3.15-3.923.813-6.67 3.544-6.14 6.098.532 2.555 4.143 3.966 8.065 3.152z" fill="white"/><path d="M269.046 91.499c1.767-4.03 1.19-8.174-1.288-9.257-2.478-1.084-5.92 1.303-7.686 5.33-1.766 4.03-1.19 8.173 1.29 9.257 2.477 1.084 5.918-1.303 7.684-5.331z" fill="white"/><path d="M207.534 85.066c1.324-1.018.97-3.697-.79-5.986-1.763-2.289-4.265-3.32-5.59-2.302-1.325 1.017-.97 3.697.79 5.985 1.763 2.289 4.265 3.32 5.59 2.303z" fill="white"/><path d="M103.73 146.286c1.68-.625 2.732-1.97 2.348-3.002-.385-1.033-2.06-1.364-3.743-.74-1.682.625-2.733 1.97-2.349 3.002.385 1.034 2.06 1.365 3.743.74z" fill="white"/><path d="M236.336 84.53c.268-2.045-2.506-4.093-6.195-4.574-3.688-.482-6.895.785-7.163 2.83-.267 2.044 2.506 4.092 6.195 4.573 3.69.481 6.896-.786 7.164-2.83z" fill="white"/><path d="M241.938 83.348c.935-2.132.438-4.41-1.11-5.087-1.55-.676-3.562.503-4.497 2.636-.934 2.132-.437 4.41 1.112 5.087 1.548.677 3.56-.503 4.496-2.635z" fill="white"/><path d="M221.882 120.852c.798-1.496-.456-3.722-2.803-4.97-2.347-1.25-4.897-1.05-5.696.447-.8 1.495.456 3.72 2.803 4.97 2.346 1.25 4.896 1.05 5.695-.448z" fill="white"/><path d="M120.34 52.368c.84-1.571-.477-3.908-2.94-5.218-2.462-1.31-5.138-1.1-5.976.471-.84 1.573.477 3.91 2.94 5.22 2.462 1.31 5.138 1.1 5.976-.472z" fill="white"/><path d="M258.282 120.44c2.43-2.8 2.946-6.326 1.152-7.88-1.793-1.552-5.216-.543-7.646 2.256-2.43 2.798-2.946 6.325-1.152 7.878 1.793 1.553 5.216.543 7.646-2.255z" fill="white"/><path d="M218.18 100.78c5.253-.393 9.304-3.485 9.048-6.905-.257-3.42-4.723-5.876-9.976-5.483-5.253.393-9.304 3.484-9.048 6.905.257 3.42 4.723 5.875 9.976 5.482z" fill="white"/><path d="M223.26 73.132c.21-1.196-1.256-2.45-3.27-2.8-2.016-.35-3.818.335-4.027 1.53-.21 1.197 1.256 2.45 3.27 2.8 2.016.351 3.82-.334 4.027-1.53z" fill="white"/><path d="M205.375 73.199c.804-1.508-.46-3.75-2.823-5.008-2.364-1.258-4.932-1.057-5.736.45-.804 1.507.46 3.748 2.823 5.006 2.363 1.259 4.93 1.057 5.735-.45z" fill="white"/><path d="M234.45 67.924c2.138-2.46 2.593-5.56 1.02-6.924-1.576-1.364-4.584-.474-6.72 1.986-2.137 2.46-2.592 5.56-1.018 6.924 1.575 1.363 4.583.474 6.72-1.986z" fill="white"/><path d="M260.275 147.358c.997-2.274.338-4.76-1.472-5.55-1.81-.792-4.085.41-5.082 2.683-.996 2.275-.337 4.76 1.473 5.55 1.81.793 4.085-.41 5.082-2.682z" fill="white"/><path d="M222.565 68.645c2.454-1.173 3.13-4.869 1.506-8.255-1.62-3.386-4.926-5.18-7.38-4.008-2.455 1.173-3.13 4.868-1.507 8.255 1.623 3.386 4.928 5.18 7.382 4.008z" fill="white"/><path d="M133.784 271.256c.942-2.147.44-4.44-1.118-5.12-1.56-.683-3.586.504-4.527 2.65-.943 2.147-.442 4.44 1.117 5.122 1.56.682 3.586-.506 4.527-2.652z" fill="white"/><path d="M110.54 254.67c.222-1.268-1.334-2.598-3.475-2.97-2.14-.373-4.055.353-4.276 1.622-.222 1.268 1.334 2.598 3.474 2.97 2.14.372 4.055-.354 4.276-1.622z" fill="white"/><path d="M121.5 249.442c2.14-2.463 2.595-5.568 1.018-6.934-1.578-1.366-4.59-.476-6.73 1.987-2.138 2.464-2.594 5.568-1.016 6.934 1.577 1.365 4.59.475 6.73-1.988z" fill="white"/><path d="M109.73 250.423c2.555-1.22 3.256-5.072 1.565-8.6-1.69-3.53-5.132-5.4-7.687-4.18-2.556 1.222-3.257 5.072-1.566 8.6 1.69 3.53 5.133 5.4 7.688 4.18z" fill="white"/><path d="M105.423 111.796c.695-2.655-1.72-5.584-5.395-6.543-3.674-.958-7.216.417-7.91 3.072-.695 2.655 1.72 5.585 5.395 6.543 3.674.96 7.216-.417 7.91-3.072z" fill="white"/><path d="M166.33 144.15c.222-1.267-1.334-2.597-3.474-2.97-2.14-.372-4.055.355-4.277 1.623-.222 1.268 1.334 2.598 3.475 2.97 2.14.372 4.055-.354 4.276-1.622z" fill="white"/><path d="M155.365 148.298c2.242-2.583 2.72-5.837 1.067-7.27-1.653-1.43-4.812-.497-7.054 2.085-2.243 2.583-2.72 5.838-1.068 7.27 1.654 1.43 4.812.498 7.055-2.085z" fill="white"/><path d="M144.222 149.82c2.604-1.245 3.32-5.168 1.597-8.762-1.724-3.595-5.23-5.5-7.835-4.257-2.604 1.246-3.318 5.17-1.596 8.763 1.72 3.595 5.228 5.5 7.832 4.256z" fill="white"/><path d="M147.25 118.68c2.57-1.228 3.275-5.098 1.576-8.644-1.7-3.546-5.16-5.426-7.73-4.198-2.568 1.228-3.273 5.098-1.574 8.644 1.7 3.546 5.16 5.425 7.728 4.198z" fill="white"/><path d="M190.338 50.25c2.844-.212 5.037-1.886 4.898-3.739-.14-1.851-2.557-3.18-5.4-2.968-2.845.212-5.038 1.886-4.9 3.739.14 1.853 2.558 3.183 5.402 2.97z" fill="white"/><path d="M52.94 205.156c.008-1.796-2.356-3.264-5.282-3.278-2.925-.014-5.304 1.43-5.312 3.226-.01 1.796 2.355 3.264 5.28 3.278 2.926.014 5.304-1.43 5.313-3.226z" fill="white"/><path d="M96.02 185.264c1.582-1.02 1.52-3.93-.14-6.502-1.66-2.572-4.289-3.832-5.872-2.813-1.583 1.018-1.52 3.93.14 6.5 1.66 2.574 4.288 3.833 5.871 2.814z" fill="white"/><path d="M120.304 181.16c4.184-.292 7.44-2.49 7.27-4.907-.17-2.42-3.7-4.142-7.884-3.85-4.184.292-7.44 2.49-7.27 4.908.17 2.42 3.7 4.143 7.884 3.85z" fill="white"/><path d="M161.54 112.372c1.457-.938 1.59-3.323.295-5.328-1.294-2.006-3.524-2.872-4.98-1.934-1.457.937-1.59 3.323-.295 5.328 1.294 2.006 3.524 2.87 4.98 1.934z" fill="white"/><path d="M85.572 169.657c2.268-1.225 3.471-3.39 2.688-4.838-.784-1.45-3.258-1.63-5.526-.406-2.268 1.224-3.47 3.39-2.687 4.838.783 1.447 3.257 1.63 5.525.405z" fill="white"/><path d="M70.955 234.52c1.745-1.122 2.014-3.808.601-5.998-1.413-2.19-3.974-3.054-5.719-1.93-1.745 1.122-2.014 3.808-.6 5.998 1.412 2.19 3.973 3.055 5.718 1.93z" fill="white"/><path d="M135.36 248.38c1.48-.95 1.424-3.677-.13-6.09-1.55-2.41-4.01-3.595-5.492-2.643-1.482.95-1.424 3.677.128 6.09 1.553 2.41 4.013 3.595 5.494 2.644z" fill="white"/><path d="M185.03 237.198c2.515-2.888 3.252-6.36 1.647-7.752-1.605-1.393-4.944-.18-7.458 2.707-2.515 2.888-3.252 6.36-1.647 7.753 1.604 1.393 4.944.18 7.458-2.708z" fill="white"/><path d="M134.452 212.667c.885-3.783-.092-7.245-2.18-7.732-2.09-.488-4.502 2.184-5.387 5.967-.885 3.783.092 7.245 2.18 7.733 2.09.487 4.502-2.185 5.387-5.968z" fill="white"/><path d="M163.225 86.742c2.788-1.79 3.042-6.356.57-10.2-2.475-3.842-6.74-5.506-9.528-3.716s-3.043 6.356-.57 10.199c2.474 3.842 6.74 5.507 9.528 3.717z" fill="white"/><path d="M119.603 227.78c2.07-.574 3.02-3.662 2.12-6.897-.898-3.234-3.306-5.39-5.378-4.816-2.07.574-3.02 3.662-2.12 6.897.898 3.234 3.306 5.39 5.378 4.816z" fill="white"/><path d="M132.36 224.256c.25-1.782-1.547-3.507-4.012-3.852-2.465-.345-4.666.82-4.916 2.603-.25 1.782 1.545 3.507 4.01 3.852 2.465.344 4.667-.82 4.917-2.604z" fill="white"/><path d="M164.185 94.257c.28-1.989-1.725-3.913-4.477-4.298-2.752-.386-5.21.913-5.488 2.902-.28 1.988 1.725 3.913 4.477 4.298 2.752.385 5.21-.915 5.488-2.903z" fill="white"/><path d="M179.335 48.778c.282-2.01-1.744-3.957-4.527-4.347-2.782-.388-5.266.926-5.55 2.938-.28 2.011 1.746 3.958 4.528 4.347 2.782.39 5.267-.925 5.55-2.937z" fill="white"/><path d="M70.25 259.553c2.18-1.4 2.095-5.406-.187-8.95-2.282-3.546-5.898-5.286-8.076-3.888-2.179 1.4-2.095 5.406.187 8.95 2.282 3.546 5.898 5.286 8.077 3.888z" fill="white"/><path d="M149.777 171.928c.103-1.708-2.21-3.237-5.17-3.416-2.958-.178-5.44 1.06-5.544 2.77-.103 1.708 2.21 3.237 5.17 3.416 2.958.178 5.44-1.06 5.544-2.77z" fill="white"/><path d="M176.933 160.075c.963-2.558.57-5.073-.88-5.616-1.448-.545-3.403 1.088-4.365 3.645-.963 2.558-.57 5.073.88 5.616 1.448.545 3.403-1.088 4.365-3.645z" fill="white"/><path d="M62.418 103.976c1.07-3.2-.96-6.758-4.533-7.949-3.573-1.19-7.336.437-8.405 3.636-1.07 3.198.96 6.757 4.533 7.948 3.573 1.192 7.336-.435 8.405-3.634z" fill="white"/><path d="M168.42 161.28c2.93-2.59 4.135-6.01 2.694-7.633-1.44-1.624-4.983-.84-7.912 1.752-2.93 2.59-4.136 6.008-2.695 7.632 1.44 1.624 4.984.84 7.913-1.752z" fill="white"/><path d="M92.363 194.464c2.96-2.62 4.18-6.074 2.724-7.715-1.456-1.642-5.037-.85-7.998 1.77-2.962 2.62-4.181 6.074-2.725 7.716 1.456 1.64 5.037.848 7.998-1.772z" fill="white"/><path d="M176.137 140.734c1.56-.737 1.997-3.077.977-5.227-1.02-2.15-3.11-3.293-4.668-2.556-1.56.738-1.997 3.078-.978 5.228 1.02 2.15 3.11 3.293 4.67 2.556z" fill="white"/><path d="M167.98 178.927c1.732-2.32 1.908-5.117.393-6.246-1.516-1.128-4.15-.163-5.883 2.157-1.733 2.32-1.91 5.117-.393 6.246 1.516 1.13 4.15.164 5.882-2.156z" fill="white"/><path d="M171.758 122.446c.237-1.74-1.875-3.465-4.716-3.85-2.84-.386-5.337.714-5.573 2.455-.238 1.743 1.873 3.467 4.715 3.852 2.84.385 5.336-.714 5.573-2.456z" fill="white"/><path d="M179.142 105.203c.248-1.825-1.966-3.633-4.945-4.036-2.98-.404-5.595.748-5.843 2.574-.25 1.826 1.965 3.634 4.944 4.037 2.98.404 5.596-.748 5.844-2.574z" fill="white"/><path d="M185.525 281.48c3.79-.787 6.446-3.43 5.93-5.9-.513-2.472-4.002-3.838-7.792-3.05-3.79.785-6.445 3.426-5.93 5.898.513 2.472 4.002 3.838 7.792 3.05z" fill="white"/><path d="M212.368 221.573c4.126-.84 7.026-3.703 6.476-6.392-.55-2.69-4.34-4.187-8.466-3.346-4.126.84-7.026 3.703-6.476 6.392.55 2.69 4.34 4.188 8.466 3.347z" fill="white"/><path d="M221.13 208.63c.228-1.672-1.795-3.327-4.517-3.696-2.723-.37-5.115.688-5.342 2.36-.226 1.673 1.797 3.33 4.52 3.698 2.722.37 5.114-.688 5.34-2.36z" fill="white"/><path d="M102.01 283.584c3.933-.817 6.69-3.555 6.157-6.118-.534-2.562-4.155-3.977-8.088-3.16-3.935.816-6.69 3.554-6.158 6.117.533 2.562 4.154 3.977 8.088 3.16z" fill="white"/><path d="M92.857 280.62c.234-1.722-1.852-3.426-4.659-3.807-2.806-.38-5.272.708-5.506 2.43-.234 1.722 1.852 3.427 4.659 3.808 2.808.38 5.273-.707 5.507-2.43z" fill="white"/><path d="M227.803 403.52c.77-2.034-1.136-4.64-4.258-5.82-3.122-1.18-6.278-.487-7.048 1.546s1.136 4.637 4.258 5.818c3.122 1.18 6.278.488 7.048-1.545z" fill="white"/><path d="M216.247 398.787c.916-1.084.23-3.168-1.533-4.655-1.763-1.487-3.935-1.815-4.85-.73-.918 1.082-.232 3.166 1.53 4.653 1.764 1.488 3.936 1.815 4.853.732z" fill="white"/><path d="M100.485 147.447c.11-1.808-2.338-3.427-5.466-3.616-3.13-.188-5.753 1.125-5.863 2.933-.11 1.808 2.338 3.427 5.466 3.616 3.128.188 5.752-1.125 5.862-2.933z" fill="white"/><path d="M102.65 130.94c2.722-2.407 3.843-5.58 2.504-7.09-1.338-1.51-4.63-.78-7.35 1.627-2.721 2.408-3.842 5.583-2.504 7.09 1.34 1.51 4.63.78 7.35-1.626z" fill="white"/><path d="M133.665 173.552c2.31-.883 3.724-2.795 3.16-4.27-.567-1.476-2.898-1.957-5.208-1.074-2.31.883-3.725 2.795-3.16 4.27.566 1.477 2.897 1.957 5.208 1.074z" fill="white"/><path d="M156.193 138.754c2.23-.315 3.64-3.396 3.146-6.88-.495-3.484-2.705-6.052-4.936-5.737-2.232.316-3.64 3.396-3.146 6.88.494 3.484 2.703 6.053 4.935 5.737z" fill="white"/><path d="M173.482 322.07c.204-1.17-1.23-2.395-3.204-2.738-1.973-.344-3.738.326-3.942 1.496-.204 1.17 1.23 2.395 3.203 2.74 1.973.342 3.738-.328 3.942-1.497z" fill="white"/><path d="M162.887 326.335c2.293-2.64 2.78-5.97 1.09-7.433-1.69-1.465-4.92-.51-7.214 2.13-2.293 2.64-2.782 5.97-1.09 7.434 1.69 1.464 4.92.51 7.214-2.13z" fill="white"/><path d="M163.617 316.69c2.212-.313 3.61-3.366 3.12-6.82-.49-3.453-2.68-6-4.894-5.686-2.212.312-3.61 3.366-3.12 6.82.49 3.453 2.68 6 4.894 5.686z" fill="white"/><path d="M246.28 119c.22-1.26-1.327-2.582-3.457-2.952-2.13-.37-4.033.35-4.253 1.612-.22 1.26 1.328 2.582 3.457 2.953 2.13.37 4.034-.352 4.253-1.612z" fill="white"/><path d="M235.472 123.267c2.338-2.693 2.835-6.09 1.11-7.583-1.727-1.495-5.022-.524-7.36 2.17-2.34 2.693-2.836 6.09-1.11 7.583 1.726 1.495 5.02.523 7.36-2.17z" fill="white"/><path d="M236.162 113.584c2.22-.314 3.62-3.378 3.13-6.843-.49-3.464-2.69-6.018-4.91-5.704-2.22.314-3.62 3.377-3.13 6.842.492 3.465 2.69 6.02 4.91 5.706z" fill="white"/><path d="M193.537 338.8c2.172-2.502 2.635-5.653 1.034-7.04-1.6-1.386-4.658-.482-6.83 2.02-2.172 2.5-2.635 5.652-1.034 7.038 1.6 1.386 4.66.482 6.83-2.02z" fill="white"/><path d="M182.292 339.99c2.44-1.166 3.11-4.842 1.496-8.21-1.614-3.37-4.9-5.156-7.34-3.99-2.442 1.166-3.11 4.843-1.497 8.212 1.615 3.368 4.9 5.154 7.342 3.988z" fill="white"/><path d="M202.06 348.232c2.78-2.458 3.925-5.7 2.558-7.24-1.367-1.54-4.727-.797-7.506 1.662-2.78 2.458-3.924 5.7-2.557 7.24 1.366 1.54 4.727.797 7.506-1.662z" fill="white"/><path d="M194.448 329.416c2.255-.32 3.677-3.433 3.178-6.955-.5-3.52-2.732-6.118-4.986-5.8-2.255.32-3.678 3.434-3.178 6.956.5 3.522 2.732 6.12 4.986 5.8z" fill="white"/><path d="M136.517 130.145c.718-2.597-1.613-5.505-5.207-6.495-3.594-.99-7.09.31-7.807 2.908-.717 2.597 1.614 5.505 5.208 6.496 3.595.99 7.09-.312 7.807-2.91z" fill="white"/><path d="M117.652 152.317c1.516-2.03 1.67-4.477.342-5.465-1.327-.99-3.632-.145-5.148 1.885-1.516 2.03-1.67 4.476-.342 5.465 1.327.988 3.632.144 5.148-1.885z" fill="white"/><path d="M31.89 79.69c.008-1.72-2.257-3.124-5.058-3.137-2.802-.014-5.08 1.368-5.089 3.087-.008 1.72 2.256 3.124 5.058 3.137 2.803.014 5.08-1.368 5.09-3.087z" fill="white"/><path d="M49.425 95.216c1.33-.856 1.278-3.302-.117-5.463-1.394-2.16-3.602-3.218-4.933-2.362-1.33.857-1.277 3.302.117 5.463 1.395 2.16 3.603 3.219 4.933 2.363z" fill="white"/><path d="M92.124 43.465c3.022-.211 5.373-1.798 5.25-3.543-.121-1.746-2.67-2.99-5.693-2.778-3.02.21-5.372 1.797-5.25 3.542.123 1.746 2.672 2.99 5.694 2.779z" fill="white"/><path d="M77.096 59.684c.856-3.66-.086-7.007-2.104-7.478-2.019-.47-4.348 2.114-5.205 5.773-.856 3.658.086 7.006 2.104 7.477 2.02.47 4.35-2.114 5.206-5.773z" fill="white"/><path d="M49.783 76.658c2.489-2.625 3.24-5.95 1.68-7.426-1.561-1.475-4.844-.544-7.333 2.082-2.489 2.625-3.24 5.95-1.68 7.426 1.562 1.476 4.845.544 7.333-2.082z" fill="white"/><path d="M78.338 75.713c.46-2.365-1.31-4.698-3.954-5.211-2.645-.513-5.161.987-5.622 3.352-.46 2.364 1.31 4.697 3.955 5.21 2.644.514 5.16-.987 5.621-3.351z" fill="white"/><path d="M89.202 55.773c2.514-2.888 3.25-6.359 1.646-7.752-1.605-1.392-4.944-.18-7.458 2.708-2.514 2.889-3.251 6.36-1.646 7.753 1.604 1.394 4.943.182 7.458-2.707z" fill="white"/><path d="M70.358 84.28c1.45-.933 1.58-3.31.29-5.309-1.29-1.997-3.51-2.861-4.96-1.928-1.45.933-1.58 3.31-.29 5.31 1.29 1.998 3.51 2.862 4.96 1.928z" fill="white"/><path d="M68.288 150.33c1.372-.884 1.494-3.134.274-5.026-1.221-1.892-3.323-2.71-4.696-1.827-1.372.884-1.495 3.133-.274 5.025 1.221 1.892 3.323 2.71 4.696 1.827z" fill="white"/><path d="M168.62 67.365c2.39-1.29 3.658-3.572 2.832-5.098-.825-1.526-3.432-1.717-5.823-.427-2.39 1.29-3.66 3.573-2.833 5.099.825 1.524 3.432 1.715 5.823.425z" fill="white"/><path d="M37.04 69.257c2.254-.625 3.288-3.982 2.31-7.5-.978-3.516-3.597-5.86-5.85-5.235-2.254.625-3.288 3.982-2.31 7.5.977 3.516 3.597 5.86 5.85 5.235z" fill="white"/><path d="M63.267 67.987c.406-2.893-2.512-5.693-6.517-6.253-4.006-.561-7.582 1.33-7.988 4.223-.406 2.893 2.512 5.693 6.517 6.254 4.004.561 7.58-1.33 7.987-4.223z" fill="white"/><path d="M85.044 36.066c2.371-4.226 2.056-8.905-.704-10.45-2.76-1.545-6.921.628-9.293 4.854-2.372 4.226-2.057 8.905.704 10.45 2.761 1.545 6.922-.628 9.294-4.854z" fill="white"/><path d="M255.75 193.76c1.955-1.5 2.658-3.864 1.57-5.28-1.09-1.414-3.557-1.345-5.513.155-1.955 1.5-2.658 3.864-1.57 5.28 1.09 1.414 3.556 1.345 5.512-.155z" fill="white"/><path d="M247.457 200.642c2.367-2.362 3.11-5.452 1.658-6.903-1.45-1.45-4.546-.712-6.913 1.65s-3.11 5.452-1.658 6.903c1.45 1.45 4.547.71 6.913-1.65z" fill="white"/><path d="M143.89 64.77c3.222-.225 5.73-1.916 5.598-3.777-.13-1.86-2.848-3.187-6.07-2.962-3.223.226-5.73 1.917-5.6 3.778.13 1.86 2.85 3.187 6.072 2.962z" fill="white"/><path d="M120.793 78.174c.86-3.678-.276-7.088-2.538-7.615-2.262-.53-4.794 2.025-5.654 5.702-.86 3.678.277 7.088 2.54 7.616 2.26.528 4.793-2.026 5.653-5.704z" fill="white"/><path d="M138.167 80.894c3.568-4.098 4.61-9.025 2.33-11.005-2.28-1.981-7.02-.264-10.59 3.835-3.566 4.098-4.61 9.026-2.33 11.005 2.282 1.98 7.023.263 10.59-3.836z" fill="white"/><path d="M94.527 268.464c2.156-1.384 2.074-5.348-.183-8.854s-5.834-5.227-7.99-3.843c-2.156 1.384-2.073 5.35.183 8.855 2.257 3.506 5.835 5.226 7.99 3.842z" fill="white"/><path d="M108.425 54.924c2.35-1.268 3.596-3.51 2.785-5.01-.81-1.498-3.373-1.685-5.722-.417-2.35 1.268-3.597 3.511-2.786 5.01.81 1.499 3.373 1.686 5.723.417z" fill="white"/><path d="M91.096 85.597c2.276-.631 3.32-4.024 2.331-7.578-.988-3.555-3.634-5.924-5.91-5.293-2.275.631-3.32 4.024-2.33 7.578.987 3.554 3.633 5.923 5.91 5.292z" fill="white"/><path d="M163.034 296.693c.828-1.55-.475-3.86-2.91-5.156-2.435-1.296-5.08-1.09-5.908.46-.828 1.552.475 3.86 2.91 5.157 2.435 1.296 5.08 1.09 5.908-.46z" fill="white"/><path d="M166.447 280.168c.472-2.43-1.346-4.825-4.063-5.352-2.716-.528-5.3 1.014-5.774 3.443-.473 2.428 1.346 4.824 4.062 5.35 2.717.53 5.302-1.013 5.775-3.442z" fill="white"/><path d="M158.292 288.636c1.414-.91 1.54-3.23.282-5.18-1.258-1.95-3.425-2.792-4.84-1.882-1.414.91-1.54 3.23-.282 5.18 1.26 1.95 3.426 2.793 4.84 1.882z" fill="white"/><path d="M89.88 108.62c1.529-.982 1.764-3.334.526-5.252-1.237-1.918-3.48-2.676-5.007-1.692-1.53.983-1.764 3.335-.527 5.253 1.238 1.917 3.48 2.674 5.008 1.69z" fill="white"/><path d="M142.32 306.087c3.555-1.373 5.632-4.567 4.64-7.134-.995-2.566-4.684-3.534-8.24-2.16-3.556 1.373-5.634 4.567-4.64 7.133.994 2.567 4.682 3.534 8.24 2.16z" fill="white"/><path d="M132.638 305.56c.698-1.777-.548-3.926-2.783-4.802-2.235-.875-4.612-.145-5.31 1.63-.697 1.777.55 3.926 2.783 4.802 2.235.875 4.612.145 5.31-1.63z" fill="white"/><path d="M108.03 87.136c.25-1.793-1.556-3.53-4.036-3.876-2.48-.348-4.696.825-4.947 2.62-.252 1.793 1.555 3.529 4.035 3.876 2.48.347 4.695-.826 4.947-2.62z" fill="white"/><path d="M125.82 61.423c1.31-2.333 1.135-4.917-.39-5.77-1.525-.854-3.823.346-5.132 2.679-1.31 2.333-1.135 4.917.39 5.77 1.525.854 3.823-.346 5.132-2.679z" fill="white"/><path d="M142.403 52.955c.15-2.485-3.212-4.71-7.51-4.97-4.3-.26-7.907 1.544-8.058 4.03-.15 2.485 3.213 4.71 7.512 4.97 4.3.26 7.906-1.545 8.056-4.03z" fill="white"/><path d="M152.434 43.545c5.617-.993 9.71-4.395 9.142-7.598-.568-3.203-5.582-4.994-11.198-4.001-5.617.993-9.71 4.395-9.142 7.597.568 3.204 5.58 4.995 11.198 4.002z" fill="white"/><path d="M106.702 217.158c2.98-.208 5.298-1.773 5.177-3.496-.12-1.722-2.635-2.95-5.615-2.742-2.98.21-5.297 1.774-5.177 3.496.12 1.722 2.634 2.95 5.614 2.742z" fill="white"/><path d="M102.764 231.885c3.937-4.523 5.09-9.96 2.577-12.14-2.512-2.183-7.742-.285-11.679 4.238-3.936 4.523-5.09 9.958-2.576 12.14 2.513 2.183 7.743.285 11.68-4.238z" fill="white"/><path d="M105.187 205.595c.15-2.474-3.198-4.688-7.478-4.947-4.281-.258-7.872 1.538-8.022 4.01-.15 2.475 3.199 4.69 7.478 4.948 4.28.26 7.87-1.537 8.02-4.01z" fill="white"/><path d="M115.27 196.21c5.63-.997 9.734-4.41 9.164-7.624-.57-3.215-5.597-5.013-11.23-4.018-5.63.996-9.734 4.41-9.164 7.624.57 3.214 5.597 5.013 11.23 4.017z" fill="white"/><path d="M157.195 53.974c2.743-1.048 4.423-3.316 3.752-5.065-.67-1.75-3.437-2.32-6.18-1.27-2.743 1.047-4.423 3.315-3.753 5.064.67 1.75 3.438 2.318 6.18 1.27z" fill="white"/><path d="M131.814 98.917c.827-2.83.085-5.536-1.656-6.043-1.74-.507-3.823 1.376-4.65 4.206-.826 2.83-.085 5.537 1.657 6.044 1.74.507 3.823-1.376 4.65-4.207z" fill="white"/><path d="M40.217 41.933c1.859-1.218 1.756-4.656-.23-7.678-1.986-3.023-5.103-4.486-6.961-3.268-1.859 1.218-1.756 4.655.23 7.678 1.986 3.023 5.103 4.486 6.961 3.268z" fill="white"/><path d="M31.65 8.813c1.161-2.648.781-5.372-.848-6.085-1.63-.712-3.893.856-5.054 3.504-1.16 2.648-.78 5.372.849 6.085 1.63.713 3.892-.856 5.053-3.504z" fill="white"/><path d="M22.162 42.506c2.26-2.603 2.74-5.884 1.073-7.328-1.668-1.445-4.853-.505-7.113 2.098-2.26 2.603-2.74 5.884-1.073 7.329 1.667 1.444 4.851.504 7.112-2.099z" fill="white"/><path d="M46.456 18.274c1.908-4.353 1.092-8.916-1.825-10.191-2.915-1.276-6.827 1.22-8.736 5.572-1.909 4.353-1.092 8.916 1.824 10.191 2.917 1.276 6.829-1.22 8.738-5.572z" fill="white"/><path d="M167.697 186.566c.658-2.26-.27-4.518-2.07-5.04-1.8-.523-3.795.886-4.453 3.147-.657 2.262.27 4.52 2.07 5.04 1.802.524 3.795-.886 4.453-3.147z" fill="white"/><path d="M171.868 199.635c1.9-4.335 1.087-8.88-1.82-10.15-2.905-1.272-6.802 1.213-8.703 5.548-1.9 4.335-1.086 8.88 1.82 10.15 2.905 1.272 6.802-1.213 8.703-5.548z" fill="white"/><path d="M17.924 24.252c1.595-.761 2.033-3.163.978-5.364-1.054-2.2-3.201-3.367-4.796-2.605-1.594.762-2.032 3.163-.978 5.364 1.055 2.2 3.202 3.367 4.796 2.605z" fill="white"/><path d="M121.04 105.725c2.4-.917 3.87-2.9 3.284-4.43-.586-1.53-3.007-2.027-5.408-1.11-2.4.917-3.87 2.9-3.285 4.43.587 1.53 3.008 2.027 5.41 1.11z" fill="white"/><path d="M107.83 34.66c1.687-2.257 1.858-4.98.382-6.079-1.475-1.098-4.04-.158-5.726 2.1-1.687 2.258-1.858 4.98-.382 6.08 1.475 1.099 4.04.16 5.726-2.1z" fill="white"/><path d="M46.446 186.038c3.339-.234 5.935-1.985 5.8-3.912-.135-1.927-2.95-3.3-6.289-3.067-3.338.233-5.935 1.984-5.8 3.91.135 1.928 2.95 3.3 6.29 3.068z" fill="white"/><path d="M38.357 213.024c2.704-3.107 3.496-6.84 1.77-8.34-1.728-1.5-5.32-.197-8.024 2.91-2.705 3.106-3.497 6.84-1.77 8.34 1.728 1.5 5.32.196 8.024-2.91z" fill="white"/><path d="M31.529 179.598c2.257-1.22 3.455-3.375 2.675-4.816-.78-1.44-3.243-1.62-5.5-.403-2.258 1.218-3.456 3.374-2.676 4.815.779 1.44 3.241 1.62 5.499.403z" fill="white"/><path d="M31.06 194.59c1.399-2.492 1.214-5.25-.412-6.16-1.626-.91-4.078.372-5.476 2.863-1.398 2.49-1.214 5.25.412 6.16 1.627.91 4.078-.373 5.476-2.864z" fill="white"/><path d="M70.652 123.228c1.734-.82 2.055-3.772.717-6.593-1.34-2.822-3.83-4.444-5.562-3.625-1.734.82-2.055 3.772-.717 6.593 1.34 2.822 3.829 4.445 5.562 3.625z" fill="white"/><path d="M36.4 169.565c.105-1.723-2.228-3.266-5.21-3.446-2.98-.18-5.483 1.07-5.587 2.793-.104 1.724 2.228 3.267 5.21 3.447 2.981.18 5.483-1.07 5.588-2.795z" fill="white"/><path d="M66.478 169.135c3.675-2.983 5.215-7.17 3.44-9.35-1.775-2.18-6.192-1.528-9.867 1.455-3.673 2.983-5.213 7.17-3.438 9.35 1.775 2.18 6.192 1.528 9.866-1.455z" fill="white"/><path d="M75.342 131.893c.853-2.552-1.628-5.678-5.541-6.983-3.912-1.304-7.776-.293-8.63 2.26-.852 2.55 1.629 5.676 5.542 6.98 3.913 1.306 7.777.295 8.63-2.257z" fill="white"/><path d="M61.37 33.384c1.67-.79 1.98-3.633.691-6.35-1.287-2.717-3.686-4.279-5.357-3.488-1.67.79-1.98 3.633-.692 6.35 1.29 2.717 3.688 4.279 5.36 3.488z" fill="white"/><path d="M65.848 42.139c.817-2.447-1.562-5.444-5.314-6.695-3.752-1.25-7.457-.282-8.274 2.164-.818 2.445 1.561 5.441 5.313 6.692 3.753 1.25 7.457.282 8.275-2.163z" fill="white"/><path d="M36.867 146.542c2.687-2.377 3.794-5.51 2.473-7-1.32-1.487-4.569-.767-7.255 1.61-2.687 2.377-3.794 5.51-2.473 7 1.32 1.487 4.569.767 7.255-1.61z" fill="white"/><path d="M51.615 136.03c3.125-1.477 4.002-6.168 1.96-10.477-2.044-4.31-6.234-6.604-9.36-5.126-3.124 1.478-4.001 6.17-1.958 10.478 2.043 4.31 6.233 6.604 9.358 5.126z" fill="white"/><path d="M52.788 177.555c2.85-1.09 4.597-3.446 3.9-5.264-.696-1.817-3.572-2.407-6.423-1.317-2.85 1.09-4.597 3.446-3.9 5.264.696 1.818 3.571 2.408 6.423 1.318z" fill="white"/><path d="M78.066 150.25c2.197-.312 3.584-3.342 3.098-6.77-.486-3.425-2.66-5.952-4.858-5.64-2.197.31-3.584 3.34-3.098 6.767.485 3.426 2.66 5.952 4.858 5.642z" fill="white"/><path d="M90.194 130.454c3.237-1.53 4.298-6.067 2.37-10.132-1.927-4.065-6.113-6.12-9.35-4.59-3.237 1.532-4.298 6.068-2.37 10.133 1.927 4.065 6.113 6.12 9.35 4.59z" fill="white"/><path d="M148.68 321.072c1.71-.81 2.025-3.717.707-6.497-1.318-2.78-3.772-4.378-5.48-3.57-1.71.81-2.027 3.717-.71 6.497 1.32 2.78 3.773 4.378 5.482 3.57z" fill="white"/><path d="M153.36 329.788c.847-2.53-1.613-5.63-5.494-6.923-3.88-1.293-7.71-.29-8.557 2.24-.846 2.53 1.614 5.628 5.494 6.922 3.88 1.293 7.712.29 8.557-2.24z" fill="white"/><path d="M183.403 316.46c3.194-1.51 4.243-5.985 2.342-9.994-1.9-4.01-6.032-6.035-9.227-4.524-3.195 1.51-4.244 5.986-2.343 9.995 1.9 4.01 6.033 6.035 9.228 4.524z" fill="white"/><path d="M45.129 154.54c2.865-3.837 3.156-8.46.65-10.327-2.505-1.867-6.86-.27-9.725 3.567-2.866 3.837-3.158 8.46-.652 10.327 2.505 1.867 6.86.27 9.726-3.567z" fill="white"/><path d="M47.327 106.98c.233-1.712-1.839-3.406-4.627-3.784-2.788-.378-5.236.703-5.469 2.414-.231 1.71 1.84 3.404 4.628 3.782 2.788.378 5.237-.702 5.47-2.413z" fill="white"/><path d="M20.37 203.826c3.057-2.704 4.315-6.27 2.81-7.967-1.505-1.697-5.202-.88-8.259 1.824-3.055 2.704-4.312 6.27-2.807 7.967 1.504 1.697 5.202.88 8.258-1.824z" fill="white"/><path d="M30.355 129.34c2.19-.31 3.571-3.336 3.086-6.76-.484-3.422-2.653-5.945-4.842-5.636-2.19.31-3.571 3.336-3.086 6.76.486 3.422 2.654 5.946 4.843 5.636z" fill="white"/><path d="M34.866 98.422c1.681-.795 2.232-3.15 1.232-5.262-1.001-2.11-3.176-3.177-4.857-2.382-1.68.795-2.232 3.15-1.23 5.261 1 2.11 3.175 3.177 4.856 2.382z" fill="white"/><path d="M104.66 173.29c3.417-1.616 4.54-6.402 2.506-10.69-2.033-4.288-6.452-6.454-9.87-4.837-3.418 1.616-4.541 6.403-2.508 10.69 2.033 4.29 6.453 6.454 9.87 4.838z" fill="white"/><path d="M153.376 247.232c4.332-.302 7.7-2.577 7.525-5.08-.174-2.502-3.827-4.286-8.158-3.984-4.33.303-7.7 2.577-7.525 5.08.175 2.503 3.828 4.287 8.16 3.984z" fill="white"/><path d="M144.033 242.22c1.263-2.248 1.096-4.738-.372-5.56-1.466-.82-3.68.336-4.942 2.586-1.262 2.25-1.096 4.738.372 5.56 1.468.82 3.68-.336 4.943-2.585z" fill="white"/><path d="M136.368 161.366c1.76-.497 2.94-1.774 2.634-2.854-.305-1.08-1.98-1.55-3.74-1.054-1.76.496-2.94 1.774-2.635 2.853.306 1.08 1.98 1.553 3.74 1.056z" fill="white"/><path d="M132.09 157.992c.02-1.657-2.29-3.025-5.158-3.056-2.867-.03-5.206 1.287-5.224 2.944-.018 1.657 2.292 3.026 5.16 3.057 2.866.03 5.205-1.287 5.223-2.945z" fill="white"/><path d="M186.352 64.806c1.82-.87 2.324-3.605 1.125-6.108-1.2-2.503-3.648-3.827-5.468-2.957-1.822.87-2.326 3.605-1.126 6.109 1.2 2.502 3.647 3.826 5.468 2.956z" fill="white"/><path d="M192.07 71.205c.387-2.76-2.394-5.43-6.213-5.964-3.818-.534-7.227 1.27-7.614 4.03-.388 2.76 2.394 5.43 6.212 5.964 3.818.535 7.227-1.27 7.614-4.029z" fill="white"/><path d="M149.38 226.043c.733-2.912-.04-5.616-1.728-6.04-1.688-.424-3.65 1.593-4.385 4.504-.733 2.912.04 5.616 1.73 6.04 1.687.424 3.65-1.593 4.383-4.504z" fill="white"/><path d="M165.632 215.31c1.476-2.222 1.36-4.892-.256-5.964-1.618-1.07-4.126-.138-5.602 2.085-1.476 2.224-1.36 4.894.257 5.966 1.62 1.07 4.127.138 5.602-2.085z" fill="white"/><path d="M157.367 225.792c2.592-1.094 3.467-4.878 1.955-8.453-1.512-3.577-4.84-5.59-7.43-4.495-2.593 1.093-3.468 4.878-1.955 8.453 1.512 3.575 4.84 5.587 7.43 4.494z" fill="white"/><path d="M201.147 167.49c1.89-.904 2.415-3.74 1.173-6.333-1.243-2.593-3.783-3.964-5.673-3.06-1.89.903-2.415 3.738-1.173 6.33 1.243 2.595 3.783 3.965 5.673 3.062z" fill="white"/><path d="M202.787 155.216c1.57-2.1 1.727-4.633.354-5.657-1.373-1.024-3.758-.15-5.327 1.95-1.57 2.1-1.728 4.634-.354 5.657 1.372 1.023 3.758.15 5.327-1.95z" fill="white"/><path d="M17.379 68.312c1.832-4.18.859-8.644-2.174-9.97-3.034-1.327-6.978.986-8.811 5.166-1.833 4.18-.86 8.644 2.173 9.97 3.033 1.327 6.978-.986 8.81-5.166z" fill="white"/><path d="M7.443 83.74c2.21-1.056 2.819-4.384 1.358-7.433-1.46-3.05-4.436-4.665-6.647-3.608-2.21 1.055-2.818 4.383-1.358 7.432 1.461 3.049 4.438 4.664 6.648 3.608z" fill="white"/><path d="M121.825 122.41c1.578-2.113 1.74-4.66.36-5.687-1.38-1.028-3.778-.148-5.356 1.965-1.58 2.113-1.74 4.66-.36 5.687 1.38 1.028 3.777.148 5.355-1.965z" fill="white"/><path d="M72.169 200.84c2.167-1.036 2.768-4.292 1.34-7.27-1.427-2.98-4.342-4.556-6.51-3.52-2.17 1.037-2.77 4.292-1.343 7.272 1.427 2.98 4.343 4.555 6.512 3.518z" fill="white"/><path d="M78.773 207.823c.448-3.195-2.773-6.286-7.195-6.905-4.422-.62-8.37 1.468-8.819 4.663-.45 3.196 2.772 6.287 7.194 6.906 4.422.62 8.37-1.468 8.819-4.663z" fill="white"/><path d="M74.3 185.75c1.91-2.557 2.104-5.64.434-6.883-1.67-1.245-4.574-.18-6.484 2.378-1.91 2.558-2.106 5.64-.435 6.885 1.67 1.244 4.573.18 6.484-2.38z" fill="white"/><path d="M222.16 302.927c.007-1.668-2.192-3.032-4.913-3.045-2.72-.013-4.933 1.33-4.94 2.997-.01 1.668 2.19 3.032 4.91 3.045 2.72.013 4.934-1.33 4.942-2.998z" fill="white"/><path d="M241.64 315.91c1.453-.934 1.396-3.607-.128-5.968-1.524-2.362-3.938-3.518-5.39-2.583-1.454.934-1.397 3.607.127 5.97 1.523 2.36 3.937 3.517 5.39 2.58z" fill="white"/><path d="M254.42 272.755c2.852-.2 5.07-1.698 4.956-3.347-.116-1.65-2.522-2.825-5.375-2.626-2.85.2-5.07 1.698-4.955 3.347.116 1.65 2.522 2.824 5.375 2.625z" fill="white"/><path d="M262.674 254.1c4.292-1.352 7.145-4.43 6.372-6.88-.772-2.448-4.877-3.338-9.17-1.987-4.29 1.35-7.144 4.43-6.372 6.878.773 2.45 4.878 3.34 9.17 1.99z" fill="white"/><path d="M235.88 267.31c.962-4.106-.097-7.863-2.363-8.392-2.266-.53-4.882 2.37-5.842 6.477-.96 4.106.098 7.863 2.364 8.392 2.265.528 4.88-2.37 5.84-6.477z" fill="white"/><path d="M259.722 302.734c1.32-.85 1.438-3.015.263-4.836-1.174-1.82-3.197-2.607-4.518-1.758-1.32.85-1.438 3.015-.263 4.835 1.175 1.82 3.198 2.608 4.518 1.76z" fill="white"/><path d="M251.118 366.655c1.392-.896 1.517-3.176.28-5.094-1.238-1.917-3.37-2.746-4.76-1.85-1.393.896-1.518 3.176-.28 5.094 1.237 1.918 3.37 2.747 4.76 1.85z" fill="white"/><path d="M247.226 256.93c2.427-1.31 3.715-3.627 2.877-5.177-.84-1.55-3.486-1.743-5.914-.433-2.428 1.31-3.717 3.628-2.878 5.178.84 1.55 3.486 1.743 5.914.433z" fill="white"/><path d="M139.68 289.2c4.062-1.278 6.763-4.195 6.03-6.515-.73-2.32-4.618-3.163-8.682-1.884-4.063 1.28-6.764 4.196-6.032 6.516.732 2.32 4.62 3.163 8.683 1.884z" fill="white"/><path d="M123.53 292.71c2.794-1.507 4.277-4.176 3.31-5.96-.964-1.782-4.01-2.006-6.805-.497-2.795 1.508-4.277 4.176-3.312 5.96.965 1.783 4.013 2.006 6.807.498z" fill="white"/><path d="M222.538 288.914c2.893-.802 4.22-5.117 2.962-9.636-1.256-4.52-4.62-7.533-7.513-6.73-2.893.802-4.22 5.116-2.963 9.636 1.257 4.52 4.62 7.532 7.514 6.73z" fill="white"/><path d="M266.077 264.822c1.336-2.38 1.158-5.015-.398-5.886-1.556-.87-3.9.354-5.236 2.734-1.336 2.38-1.158 5.016.398 5.886 1.555.87 3.9-.353 5.235-2.734z" fill="white"/><path d="M256.282 342.08c1.657-1.066 1.913-3.617.57-5.697-1.34-2.08-3.773-2.9-5.43-1.834-1.658 1.066-1.914 3.617-.572 5.697s3.774 2.9 5.432 1.834z" fill="white"/><path d="M261.74 233.15c.1-1.687-2.186-3.2-5.11-3.376-2.924-.177-5.377 1.05-5.48 2.738-.1 1.69 2.186 3.2 5.11 3.378 2.924.176 5.377-1.05 5.48-2.74z" fill="white"/><path d="M173.62 378.39c3.767-.78 6.407-3.404 5.897-5.856-.51-2.453-3.978-3.808-7.745-3.026-3.768.782-6.408 3.404-5.897 5.857.51 2.453 3.978 3.807 7.745 3.025z" fill="white"/><path d="M165.013 384.882c3.736-1.444 6.016-4.547 5.092-6.93-.924-2.384-4.702-3.146-8.438-1.7-3.736 1.443-6.016 4.546-5.092 6.93.924 2.383 4.7 3.145 8.438 1.7z" fill="white"/><path d="M219.634 355.643c3.623-.752 6.163-3.274 5.672-5.632-.49-2.358-3.826-3.66-7.45-2.908-3.623.752-6.163 3.274-5.672 5.632.49 2.36 3.826 3.66 7.45 2.91z" fill="white"/><path d="M210.605 364.02c3.54-1.354 5.707-4.28 4.843-6.537-.865-2.257-4.436-2.99-7.975-1.637-3.54 1.352-5.708 4.278-4.843 6.535.865 2.258 4.435 2.99 7.975 1.64z" fill="white"/><path d="M187.987 398.1c2.972-.208 5.284-1.77 5.164-3.49-.12-1.717-2.627-2.942-5.6-2.735-2.97.208-5.283 1.77-5.162 3.488.12 1.72 2.627 2.944 5.6 2.736z" fill="white"/><path d="M176.29 402.686c3.01-.21 5.35-1.793 5.23-3.535-.123-1.74-2.662-2.982-5.673-2.772-3.01.21-5.352 1.793-5.23 3.535.122 1.74 2.66 2.983 5.672 2.773z" fill="white"/><path d="M203.058 404.98c2.166-1.168 3.317-3.234 2.57-4.614-.747-1.38-3.108-1.55-5.274-.382-2.166 1.17-3.317 3.236-2.57 4.616.747 1.38 3.108 1.55 5.274.38z" fill="white"/><path d="M255.87 352.27c1.462-.69 1.732-3.18.604-5.56-1.128-2.378-3.227-3.747-4.69-3.056-1.46.692-1.73 3.18-.602 5.56 1.128 2.38 3.227 3.747 4.69 3.056z" fill="white"/><path d="M213.955 381.9c.104-1.715-2.216-3.25-5.183-3.43-2.966-.18-5.455 1.067-5.56 2.782-.102 1.716 2.218 3.252 5.184 3.43 2.966.18 5.455-1.065 5.56-2.78z" fill="white"/><path d="M262.57 391.235c2.96-2.402 4.2-5.772 2.77-7.528-1.428-1.755-4.985-1.23-7.944 1.17-2.958 2.403-4.198 5.773-2.77 7.53 1.43 1.754 4.987 1.23 7.945-1.172z" fill="white"/><path d="M231.355 372.972c5.035-4.455 7.11-10.33 4.63-13.123-2.476-2.793-8.566-1.446-13.6 3.01-5.036 4.454-7.11 10.33-4.632 13.12 2.478 2.794 8.568 1.446 13.602-3.008z" fill="white"/><path d="M237.912 346.136c1.57-.743 2.01-3.098.985-5.26-1.026-2.164-3.13-3.316-4.7-2.574-1.57.743-2.01 3.098-.984 5.26 1.026 2.164 3.13 3.316 4.7 2.574z" fill="white"/><path d="M266.313 361.752c2.532-1.198 3.362-4.747 1.854-7.927-1.508-3.18-4.783-4.787-7.316-3.59-2.53 1.198-3.36 4.747-1.853 7.927 1.508 3.18 4.783 4.787 7.316 3.59z" fill="white"/><path d="M141.915 206.826c2.155-.305 3.515-3.28 3.038-6.646s-2.61-5.847-4.766-5.542c-2.155.304-3.516 3.28-3.038 6.646.476 3.365 2.61 5.847 4.765 5.542z" fill="white"/><path d="M140.725 192.368c2.58-1.22 3.428-4.836 1.892-8.076-1.536-3.24-4.874-4.876-7.455-3.655-2.58 1.22-3.428 4.836-1.892 8.076 1.536 3.24 4.874 4.876 7.455 3.655z" fill="white"/><path d="M233 387.72c1.644-2.204 1.812-4.858.374-5.93-1.44-1.07-3.94-.154-5.584 2.048-1.645 2.203-1.813 4.857-.374 5.93 1.438 1.07 3.938.153 5.583-2.05z" fill="white"/><path d="M234.767 334.144c.216-1.64-1.78-3.255-4.46-3.606-2.677-.352-5.023.694-5.24 2.334-.215 1.64 1.782 3.256 4.46 3.607 2.678.35 5.024-.695 5.24-2.336z" fill="white"/><path d="M210.076 322.62c1.618-.764 1.918-3.52.67-6.153-1.25-2.633-3.574-4.148-5.192-3.382-1.618.765-1.918 3.52-.67 6.154 1.25 2.632 3.573 4.146 5.192 3.38z" fill="white"/><path d="M201.414 375.885c1.67-1.356 2.372-3.26 1.566-4.25-.806-.988-2.813-.69-4.484.665-1.67 1.357-2.373 3.26-1.567 4.25.805.99 2.813.692 4.484-.665z" fill="white"/><path d="M191.878 383.867c3.47-1.327 5.597-4.197 4.75-6.41-.85-2.214-4.35-2.933-7.822-1.607-3.47 1.327-5.597 4.196-4.75 6.41.85 2.214 4.35 2.933 7.822 1.607z" fill="white"/><path d="M219.515 347.49c1.953-.276 3.185-2.972 2.753-6.02-.432-3.05-2.366-5.297-4.318-5.02-1.953.275-3.185 2.97-2.753 6.02.432 3.048 2.366 5.296 4.318 5.02z" fill="white"/><path d="M222.56 313.716c1.68-.795 2.23-3.15 1.23-5.26-1-2.112-3.175-3.18-4.856-2.384-1.68.795-2.233 3.15-1.232 5.262 1 2.11 3.176 3.178 4.857 2.382z" fill="white"/></g><defs><clipPath id="clip0_1_15"><rect width="260" height="416" fill="white"/></clipPath></defs></svg>