<svg width="437" height="173" viewBox="0 0 437 173" fill="none" xmlns="http://www.w3.org/2000/svg"><g clip-path="url(#clip0_1_441)"><path d="M66.39 134.374c.772 1.813 3.426 2.418 5.93 1.353 2.503-1.065 3.907-3.398 3.135-5.21-.771-1.813-3.426-2.42-5.929-1.353-2.503 1.065-3.907 3.398-3.136 5.21z" fill="#2A5EBC"/><path d="M120.612 60.202c.38 1.707 2.233 2.747 4.137 2.322 1.902-.425 3.136-2.154 2.755-3.86-.38-1.708-2.233-2.747-4.136-2.322-1.905.424-3.14 2.153-2.758 3.86z" fill="#2A5EBC"/><path d="M8.154 139.872c2.038.64 4.624-1.82 5.777-5.495 1.153-3.674.435-7.17-1.603-7.81-2.038-.64-4.625 1.82-5.777 5.495-1.153 3.674-.435 7.17 1.604 7.81z" fill="#2A5EBC"/><path d="M428.177 91.108c2.47 1.213 5.076.966 5.822-.552.745-1.518-.653-3.732-3.122-4.945-2.47-1.212-5.076-.965-5.822.552-.746 1.518.652 3.732 3.12 4.946z" fill="#2A5EBC"/><path d="M407.83 122.83c-.646 3.68.486 6.952 2.53 7.31 2.042.36 4.222-2.33 4.868-6.01.646-3.677-.486-6.95-2.53-7.308-2.042-.36-4.222 2.33-4.868 6.01z" fill="#2A5EBC"/><path d="M404.73 139.64c2.76 2.617 6.357 3.305 8.03 1.538 1.675-1.767.793-5.32-1.97-7.936-2.76-2.616-6.357-3.304-8.03-1.537-1.675 1.767-.793 5.32 1.97 7.936z" fill="#2A5EBC"/><path d="M437.005 64.99c2.14 1.051 4.552.524 5.388-1.178.836-1.702-.22-3.934-2.36-4.985-2.14-1.05-4.552-.523-5.388 1.178-.836 1.702.22 3.934 2.36 4.985z" fill="#2A5EBC"/><path d="M428.222 98.712c.704 1.656 3.13 2.21 5.415 1.237 2.286-.974 3.568-3.105 2.863-4.761-.705-1.657-3.13-2.21-5.415-1.238-2.286.973-3.568 3.104-2.863 4.76z" fill="#2A5EBC"/><path d="M345.29 82.157c1.366 1.068 3.827.2 5.5-1.936 1.67-2.136 1.917-4.734.552-5.802-1.366-1.068-3.828-.201-5.5 1.936-1.67 2.136-1.918 4.735-.552 5.803z" fill="#2A5EBC"/><path d="M52.566 105.07c3.261 2.17 6.986 2.302 8.318.297 1.333-2.004-.23-5.387-3.492-7.555-3.262-2.168-6.986-2.3-8.318-.296-1.333 2.004.23 5.387 3.492 7.555z" fill="#2A5EBC"/><path d="M208.495 262.514c2.027.636 4.598-1.806 5.742-5.454s.43-7.12-1.598-7.757c-2.03-.636-4.6 1.806-5.744 5.455-1.144 3.648-.43 7.12 1.6 7.756z" fill="#2A5EBC"/><path d="M61.394 83.107c2.072 1.377 4.56 1.277 5.56-.225.998-1.502.127-3.836-1.945-5.214-2.073-1.377-4.563-1.277-5.56.225-1 1.502-.129 3.836 1.944 5.214z" fill="#2A5EBC"/><path d="M61.127 131.027c1.962 1.305 4.396 1.095 5.435-.468 1.039-1.564.29-3.888-1.672-5.193-1.963-1.305-4.396-1.095-5.435.468-1.04 1.563-.29 3.887 1.672 5.192z" fill="#2A5EBC"/><path d="M196.415 58.01c.86 1.446 3.47 1.48 5.828.078 2.358-1.404 3.57-3.714 2.71-5.16-.86-1.447-3.47-1.482-5.828-.079s-3.57 3.713-2.71 5.16z" fill="#2A5EBC"/><path d="M137.113 70.074c2.713 1.333 5.576 1.062 6.395-.605.82-1.669-.716-4.1-3.43-5.433-2.71-1.333-5.574-1.062-6.393.605-.82 1.668.716 4.1 3.428 5.432z" fill="#2A5EBC"/><path d="M121.502 149.917c1.37 1.952 5.21 1.62 8.583-.745 3.37-2.364 4.995-5.863 3.626-7.814-1.367-1.952-5.21-1.618-8.58.745-3.372 2.364-4.996 5.863-3.628 7.814z" fill="#2A5EBC"/><path d="M224.882 177.486c2.064 2.944 7.86 2.44 12.945-1.126 5.086-3.566 7.535-8.843 5.472-11.786-2.065-2.944-7.86-2.44-12.947 1.126-5.085 3.565-7.535 8.842-5.47 11.786z" fill="#2A5EBC"/><path d="M164.588 139.34c1.285.282 2.713-1.245 3.19-3.41.475-2.167-.18-4.15-1.466-4.434-1.285-.282-2.713 1.245-3.19 3.41-.475 2.166.18 4.15 1.466 4.433z" fill="#2A5EBC"/><path d="M123.39 87.432c2.22 1.09 4.66.67 5.45-.938.79-1.608-.368-3.795-2.588-4.886-2.22-1.09-4.66-.67-5.45.938-.79 1.608.37 3.795 2.59 4.886z" fill="#2A5EBC"/><path d="M262.857 179.193c2.108 1.036 4.424.64 5.173-.885.75-1.525-.352-3.6-2.46-4.637-2.11-1.035-4.425-.638-5.174.887-.75 1.524.352 3.6 2.46 4.636z" fill="#2A5EBC"/><path d="M163.194 130.116c2.985 1.763 7.642-.594 10.4-5.266 2.76-4.672 2.576-9.888-.41-11.65-2.985-1.765-7.642.593-10.4 5.265-2.76 4.67-2.576 9.888.41 11.65z" fill="#2A5EBC"/><path d="M161.664 86.84c2.363 2.238 5.44 2.827 6.87 1.315 1.433-1.511.678-4.55-1.685-6.789-2.364-2.238-5.44-2.827-6.872-1.315-1.43 1.512-.676 4.552 1.686 6.79z" fill="#2A5EBC"/><path d="M139.256 85.754c.81 1.9 3.6 2.535 6.23 1.415 2.632-1.121 4.11-3.57 3.3-5.472-.81-1.902-3.6-2.535-6.23-1.415-2.632 1.12-4.11 3.57-3.3 5.47z" fill="#2A5EBC"/><path d="M107.22 84.57c1.358 2.281 5.47 2.338 9.184.127 3.715-2.211 5.625-5.853 4.267-8.134-1.357-2.281-5.47-2.338-9.183-.127-3.715 2.211-5.625 5.853-4.267 8.134z" fill="#2A5EBC"/><path d="M47.937 153.152c1.628 2.323 6.2 1.925 10.212-.887 4.01-2.813 5.942-6.975 4.314-9.298-1.629-2.323-6.2-1.926-10.212.887-4.012 2.812-5.944 6.975-4.315 9.298z" fill="#2A5EBC"/><path d="M109.512 65.022c.88 2.065 3.895 2.76 6.736 1.55 2.842-1.21 4.433-3.864 3.554-5.93-.88-2.065-3.895-2.758-6.737-1.55-2.84 1.21-4.432 3.865-3.553 5.93z" fill="#2A5EBC"/><path d="M69.464 115.478c-.665 3.78.5 7.145 2.6 7.514 2.1.37 4.34-2.397 5.005-6.178.663-3.78-.5-7.145-2.6-7.514-2.1-.37-4.342 2.397-5.006 6.178z" fill="#2A5EBC"/><path d="M75.322 96.857c2.052 1.009 4.309.621 5.04-.866.73-1.485-.343-3.508-2.395-4.516-2.053-1.009-4.31-.621-5.04.865-.73 1.486.342 3.509 2.395 4.517z" fill="#2A5EBC"/><path d="M107.798 93.469c2.663 2.526 6.132 3.195 7.747 1.493 1.616-1.702.765-5.131-1.898-7.659-2.664-2.527-6.133-3.196-7.748-1.494-1.616 1.702-.766 5.131 1.898 7.659z" fill="#2A5EBC"/><path d="M84.4 99.043c.777 1.85 3.48 2.477 6.038 1.404 2.559-1.074 4.003-3.444 3.227-5.293-.776-1.85-3.48-2.478-6.038-1.404-2.558 1.074-4.003 3.443-3.227 5.293z" fill="#2A5EBC"/><path d="M77.776 119.645c.09 2.916 1.707 5.233 3.61 5.174 1.903-.06 3.372-2.472 3.282-5.388-.09-2.917-1.706-5.233-3.61-5.174-1.903.06-3.372 2.47-3.282 5.387z" fill="#2A5EBC"/><path d="M155.274 145.562c.846 1.62 3.8 1.746 6.6.284 2.798-1.462 4.38-3.96 3.536-5.58-.846-1.618-3.8-1.745-6.6-.283-2.798 1.463-4.382 3.96-3.536 5.58z" fill="#2A5EBC"/><path d="M128.637 164.923c1.256.983 3.522.182 5.062-1.787 1.54-1.97 1.77-4.362.514-5.344-1.256-.982-3.523-.182-5.063 1.787-1.54 1.97-1.77 4.36-.513 5.343z" fill="#2A5EBC"/><path d="M108.873 169.784c-.27 2.703.943 5.037 2.707 5.213 1.763.175 3.41-1.874 3.68-4.577.27-2.703-.942-5.037-2.706-5.213-1.764-.175-3.41 1.874-3.68 4.577z" fill="#2A5EBC"/><path d="M134.944 54.101c.67 1.554 3.26 1.93 5.787.842 2.528-1.088 4.034-3.23 3.365-4.783-.67-1.554-3.26-1.93-5.787-.842-2.527 1.089-4.033 3.23-3.364 4.783z" fill="#2A5EBC"/><path d="M156.398 49.022c4.88 3.244 10.45 3.444 12.442.447 1.993-2.999-.347-8.058-5.227-11.301-4.88-3.245-10.45-3.445-12.442-.447-1.99 2.997.35 8.056 5.228 11.3z" fill="#2A5EBC"/><path d="M146.33 54.02c1.888 1.255 4.23 1.056 5.227-.446.998-1.502.277-3.737-1.612-4.993-1.888-1.254-4.23-1.054-5.227.447-.998 1.502-.277 3.737 1.612 4.993z" fill="#2A5EBC"/><path d="M284.83 188.14c2.018 1.34 4.518 1.127 5.585-.477 1.067-1.605.297-3.994-1.72-5.335-2.018-1.34-4.52-1.127-5.586.478-1.067 1.605-.297 3.993 1.72 5.334z" fill="#2A5EBC"/><path d="M191.735 163.765c1.27 2.134 5.118 2.188 8.593.12 3.475-2.07 5.26-5.476 3.99-7.61-1.27-2.136-5.117-2.19-8.592-.12-3.475 2.067-5.262 5.475-3.99 7.61z" fill="#2A5EBC"/><path d="M243.61 190.288c2.4 1.18 4.932.94 5.656-.53.723-1.474-.636-3.624-3.036-4.803-2.4-1.18-4.932-.94-5.655.532-.724 1.472.635 3.622 3.035 4.8z" fill="#2A5EBC"/><path d="M231.064 253.072c1.07 1.524 4.072 1.262 6.708-.587 2.637-1.848 3.908-4.582 2.84-6.106-1.07-1.525-4.073-1.262-6.71.586-2.636 1.848-3.907 4.582-2.838 6.106z" fill="#2A5EBC"/><path d="M278.822 225.415c1.387.305 2.928-1.34 3.44-3.677.515-2.336-.194-4.476-1.58-4.78-1.388-.306-2.928 1.34-3.442 3.676-.513 2.336.195 4.477 1.582 4.78z" fill="#2A5EBC"/><path d="M226.016 225.966c-1.084 6.17.815 11.66 4.24 12.263 3.428.6 7.084-3.913 8.168-10.084 1.085-6.17-.814-11.66-4.24-12.263-3.427-.602-7.084 3.912-8.168 10.083z" fill="#2A5EBC"/><path d="M236.246 199.38c2.136 1.05 4.483.648 5.242-.898.76-1.545-.356-3.65-2.492-4.7-2.137-1.048-4.484-.646-5.243.9-.76 1.545.357 3.65 2.493 4.7z" fill="#2A5EBC"/><path d="M270.747 243.122c1.483.876 3.797-.297 5.17-2.62 1.37-2.322 1.28-4.915-.203-5.79-1.482-.876-3.796.297-5.168 2.62-1.372 2.322-1.282 4.914.2 5.79z" fill="#2A5EBC"/><path d="M160.283 168.765c4.432 2.178 9.43 1.085 11.16-2.44 1.733-3.526-.456-8.15-4.887-10.326-4.432-2.18-9.43-1.086-11.16 2.44-1.733 3.525.455 8.148 4.887 10.325z" fill="#2A5EBC"/><path d="M250.328 237.648c.088 2.85 1.668 5.115 3.528 5.057 1.86-.057 3.298-2.415 3.21-5.266-.09-2.852-1.67-5.116-3.53-5.058-1.86.057-3.297 2.415-3.208 5.266z" fill="#2A5EBC"/><path d="M196.922 260.672c.908 1.526 3.658 1.565 6.142.086 2.484-1.48 3.762-3.915 2.853-5.44-.91-1.527-3.66-1.566-6.143-.087-2.484 1.48-3.76 3.916-2.852 5.442z" fill="#2A5EBC"/><path d="M189.104 201.067c2.48 1.218 5.098.97 5.847-.555.75-1.525-.653-3.748-3.133-4.967-2.48-1.218-5.097-.97-5.847.555-.75 1.525.654 3.748 3.134 4.967z" fill="#2A5EBC"/><path d="M375.345 200.454c2.445 1.202 5.025.96 5.762-.54.737-1.502-.647-3.692-3.093-4.893-2.445-1.2-5.025-.958-5.762.542s.648 3.69 3.093 4.892z" fill="#2A5EBC"/><path d="M177.385 258.86c1.477 2.106 5.626 1.745 9.267-.807 3.64-2.553 5.394-6.33 3.917-8.437-1.478-2.108-5.627-1.747-9.268.806-3.64 2.553-5.395 6.33-3.917 8.437z" fill="#2A5EBC"/><path d="M126.013 177.186c5.59 1.754 10.912.658 11.886-2.447.973-3.107-2.77-7.045-8.36-8.8-5.59-1.753-10.91-.657-11.885 2.45-.974 3.104 2.768 7.043 8.358 8.796z" fill="#2A5EBC"/><path d="M88.06 178.486c2.035 1 4.273.614 4.998-.862.726-1.476-.337-3.483-2.372-4.483-2.035-1-4.273-.613-4.998.863-.726 1.476.336 3.483 2.372 4.483z" fill="#2A5EBC"/><path d="M224.767 259.884c1.443.852 3.694-.29 5.028-2.548 1.335-2.26 1.247-4.78-.196-5.633-1.444-.852-3.695.288-5.03 2.548-1.334 2.26-1.246 4.782.197 5.634z" fill="#2A5EBC"/><path d="M128.858 212.497c1.12 1.597 4.263 1.325 7.02-.608 2.756-1.933 4.083-4.795 2.963-6.392-1.118-1.597-4.26-1.325-7.017.608-2.757 1.933-4.084 4.794-2.965 6.39z" fill="#2A5EBC"/><path d="M122.73 219.26c1.48.875 3.79-.294 5.157-2.61 1.367-2.316 1.277-4.9-.203-5.775-1.48-.874-3.787.295-5.155 2.61-1.37 2.317-1.278 4.903.2 5.776z" fill="#2A5EBC"/><path d="M30.389 204.283c1.063 1.518 4.055 1.255 6.682-.586 2.627-1.842 3.894-4.565 2.83-6.083-1.065-1.518-4.057-1.255-6.684.586-2.626 1.842-3.893 4.565-2.83 6.083z" fill="#2A5EBC"/><path d="M24.08 211.137c1.452.858 3.718-.288 5.06-2.56 1.342-2.273 1.252-4.81-.2-5.67-1.454-.857-3.72.29-5.062 2.562-1.342 2.272-1.252 4.81.2 5.667z" fill="#2A5EBC"/><path d="M205.854 175.313c1.075 1.534 4.097 1.27 6.75-.59 2.65-1.86 3.93-4.61 2.854-6.144-1.075-1.534-4.097-1.27-6.75.59-2.65 1.86-3.93 4.61-2.854 6.143z" fill="#2A5EBC"/><path d="M199.597 182.11c1.446.855 3.702-.287 5.038-2.55 1.336-2.262 1.247-4.788-.2-5.642-1.445-.854-3.7.287-5.037 2.55-1.336 2.262-1.247 4.79.2 5.643z" fill="#2A5EBC"/><path d="M368.403 109.37c1.033 1.473 3.933 1.22 6.478-.563 2.545-1.784 3.77-4.425 2.738-5.898-1.033-1.474-3.934-1.223-6.478.56-2.544 1.785-3.77 4.426-2.737 5.9z" fill="#2A5EBC"/><path d="M361.883 116.39c1.476.873 3.78-.293 5.142-2.602 1.364-2.31 1.273-4.888-.203-5.76-1.476-.87-3.778.294-5.142 2.603-1.364 2.31-1.273 4.89.203 5.76z" fill="#2A5EBC"/><path d="M216.41 216.337c2.38 2.254 5.477 2.85 6.916 1.33 1.44-1.52.678-4.58-1.702-6.835-2.38-2.254-5.476-2.85-6.916-1.33-1.44 1.52-.677 4.58 1.703 6.835z" fill="#2A5EBC"/><path d="M221.984 192.064c3.75 1.843 7.98.918 9.446-2.066 1.466-2.983-.387-6.896-4.138-8.74-3.75-1.842-7.98-.917-9.446 2.066-1.466 2.984.387 6.897 4.138 8.74z" fill="#2A5EBC"/><path d="M195.313 221c.79 1.858 3.513 2.48 6.08 1.387 2.568-1.093 4.008-3.486 3.217-5.344-.79-1.86-3.514-2.48-6.08-1.387-2.568 1.092-4.008 3.485-3.217 5.344z" fill="#2A5EBC"/><path d="M153.31 278.652c.12 3.938 2.302 7.066 4.87 6.986 2.57-.08 4.552-3.336 4.43-7.274-.122-3.937-2.303-7.065-4.87-6.985-2.57.078-4.553 3.335-4.43 7.272z" fill="#2A5EBC"/><path d="M414.584 90.83c.827 1.584 3.718 1.71 6.455.28 2.736-1.43 4.283-3.874 3.456-5.459-.828-1.584-3.718-1.709-6.455-.279-2.737 1.431-4.284 3.875-3.456 5.46z" fill="#2A5EBC"/><path d="M199.766 296.42c.33 1.792 1.49 3.08 2.59 2.878 1.1-.202 1.724-1.82 1.393-3.612-.33-1.793-1.49-3.082-2.59-2.88-1.1.203-1.724 1.82-1.394 3.613z" fill="#2A5EBC"/><path d="M175.816 293.458c1.29.465 2.97-.92 3.754-3.092.784-2.173.375-4.312-.913-4.777-1.29-.466-2.97.918-3.754 3.092-.784 2.173-.375 4.31.913 4.776z" fill="#2A5EBC"/><path d="M216.438 297.36c1.843.576 4.18-1.643 5.22-4.96 1.04-3.315.39-6.47-1.453-7.05-1.843-.577-4.18 1.642-5.22 4.958-1.04 3.316-.39 6.473 1.453 7.05z" fill="#2A5EBC"/><path d="M213.376 317.09c2.004 1.333 4.41 1.238 5.375-.212.965-1.45.12-3.706-1.883-5.04-2.005-1.332-4.41-1.236-5.375.214-.964 1.45-.12 3.706 1.884 5.04z" fill="#2A5EBC"/><path d="M180.853 283.886c1.302 1.018 3.65.19 5.245-1.85 1.594-2.04 1.832-4.518.53-5.535-1.3-1.017-3.65-.19-5.244 1.85-1.595 2.04-1.833 4.518-.53 5.536z" fill="#2A5EBC"/><path d="M315.548 201.316c2.1 1.397 4.624 1.296 5.636-.225 1.01-1.52.127-3.886-1.974-5.283-2.1-1.396-4.624-1.296-5.635.225-1.012 1.522-.128 3.887 1.973 5.284z" fill="#2A5EBC"/><path d="M303.945 209.25c.77 2.753 4.48 4.124 8.29 3.06 3.81-1.064 6.273-4.16 5.504-6.914-.77-2.754-4.482-4.125-8.29-3.06-3.81 1.063-6.275 4.16-5.505 6.913z" fill="#2A5EBC"/><path d="M389.627 61.48c.862 2 4.2 2.486 7.456 1.084 3.255-1.403 5.196-4.162 4.334-6.162-.862-2.001-4.2-2.487-7.456-1.084-3.254 1.402-5.195 4.16-4.333 6.162z" fill="#2A5EBC"/><path d="M190.206 237.61c2.173 1.07 4.563.662 5.337-.91.775-1.573-.36-3.716-2.532-4.786-2.172-1.07-4.562-.664-5.336.91-.775 1.572.36 3.714 2.532 4.785z" fill="#2A5EBC"/><path d="M181.846 230.724c.658 1.528 3.21 1.898 5.697.826 2.488-1.07 3.97-3.18 3.313-4.707-.66-1.53-3.21-1.9-5.697-.827-2.49 1.072-3.972 3.18-3.314 4.708z" fill="#2A5EBC"/><path d="M95.214 72.2c2.167 1.066 4.55.656 5.32-.913.772-1.57-.36-3.706-2.527-4.771-2.167-1.065-4.55-.656-5.32.914-.772 1.57.36 3.706 2.527 4.77z" fill="#2A5EBC"/><path d="M86.49 65.473c.664 1.542 3.24 1.915 5.753.833 2.512-1.082 4.01-3.21 3.346-4.753-.665-1.542-3.24-1.915-5.753-.833-2.513 1.083-4.012 3.21-3.347 4.753z" fill="#2A5EBC"/><path d="M254.424 321.083c3.048 2.026 6.53 2.15 7.774.28 1.244-1.873-.218-5.034-3.267-7.06-3.047-2.028-6.528-2.153-7.773-.28-1.244 1.872.218 5.033 3.267 7.06z" fill="#2A5EBC"/><path d="M268.48 272.967c.973 1.862 4.37 2.01 7.587.33 3.218-1.682 5.037-4.555 4.064-6.417-.972-1.863-4.37-2.01-7.586-.33-3.218 1.682-5.037 4.554-4.064 6.417z" fill="#2A5EBC"/><path d="M231.044 295.676c2.737.988 6.306-1.953 7.972-6.568 1.666-4.616.798-9.158-1.94-10.146-2.737-.988-6.306 1.953-7.972 6.568-1.666 4.616-.798 9.158 1.94 10.146z" fill="#2A5EBC"/><path d="M245.443 266.32c1.666 1.91 5.726 1.097 9.07-1.817 3.343-2.914 4.703-6.825 3.037-8.736-1.665-1.91-5.725-1.098-9.07 1.816-3.342 2.914-4.702 6.825-3.037 8.736z" fill="#2A5EBC"/><path d="M278.325 287.126c2.12.664 4.807-1.89 6.004-5.703 1.195-3.814.447-7.445-1.673-8.11-2.12-.665-4.807 1.888-6.004 5.702-1.196 3.815-.448 7.446 1.672 8.11z" fill="#2A5EBC"/><path d="M335.473 22.43c.91 1.742 4.09 1.88 7.1.306 3.013-1.573 4.716-4.261 3.806-6.004-.912-1.742-4.09-1.88-7.103-.306-3.01 1.573-4.714 4.261-3.804 6.004z" fill="#2A5EBC"/><path d="M344.797 37.334c2.282.715 5.177-2.039 6.468-6.152 1.29-4.114.486-8.028-1.796-8.744-2.283-.716-5.18 2.038-6.47 6.152-1.29 4.113-.485 8.028 1.797 8.744z" fill="#2A5EBC"/><path d="M258.363 310.74c3.825 2.544 8.42 2.36 10.262-.412 1.843-2.772.235-7.08-3.59-9.623-3.825-2.543-8.42-2.358-10.262.414-1.843 2.77-.235 7.078 3.59 9.62z" fill="#2A5EBC"/><path d="M237.8 272.295c1.23.96 3.444.18 4.948-1.744 1.504-1.922 1.728-4.26.5-5.22-1.23-.962-3.444-.18-4.95 1.742-1.503 1.924-1.726 4.262-.498 5.223z" fill="#2A5EBC"/><path d="M170.565 265.882c1.23.963 3.45.182 4.957-1.745 1.507-1.927 1.73-4.27.498-5.232-1.23-.963-3.45-.182-4.957 1.744-1.507 1.926-1.73 4.27-.498 5.232z" fill="#2A5EBC"/><path d="M229.242 310.174c2.1 2.585 5.146 3.59 6.8 2.246 1.655-1.345 1.293-4.53-.81-7.117-2.1-2.585-5.145-3.59-6.8-2.246-1.654 1.345-1.292 4.53.81 7.117z" fill="#2A5EBC"/><path d="M244.888 298.22c.654 2.34 3.807 3.506 7.042 2.602 3.235-.904 5.328-3.534 4.674-5.874-.654-2.34-3.806-3.506-7.042-2.602-3.235.903-5.328 3.533-4.674 5.874z" fill="#2A5EBC"/><path d="M88.808 91.304c3.845 2.555 8.462 2.37 10.313-.414 1.852-2.785.236-7.114-3.609-9.67-3.844-2.556-8.46-2.37-10.312.414-1.85 2.785-.235 7.114 3.61 9.67z" fill="#2A5EBC"/><path d="M74.964 78.87c.697 2.496 4.06 3.74 7.512 2.775 3.451-.964 5.684-3.77 4.986-6.267-.697-2.497-4.06-3.74-7.512-2.776-3.451.964-5.684 3.77-4.986 6.267z" fill="#2A5EBC"/><path d="M174.55 219.694c3.71 2.468 8.17 2.29 9.956-.398 1.787-2.688.226-6.868-3.487-9.336-3.713-2.468-8.17-2.29-9.958.398-1.787 2.688-.226 6.867 3.487 9.336z" fill="#2A5EBC"/><path d="M160.694 207.405c.685 2.453 3.987 3.674 7.375 2.727 3.387-.946 5.578-3.7 4.893-6.154-.685-2.452-3.987-3.673-7.375-2.727-3.388.947-5.58 3.703-4.894 6.155z" fill="#2A5EBC"/><path d="M283.843 211.867c3.767 2.504 8.292 2.322 10.107-.408 1.814-2.73.23-6.973-3.536-9.478-3.767-2.504-8.292-2.322-10.107.408-1.815 2.73-.232 6.972 3.536 9.477z" fill="#2A5EBC"/><path d="M270.465 199.39c.637 2.28 3.71 3.416 6.863 2.535 3.153-.88 5.193-3.443 4.556-5.724-.637-2.28-3.71-3.416-6.863-2.535-3.152.88-5.192 3.444-4.555 5.725z" fill="#2A5EBC"/><path d="M253.828 224.104c3.844 2.556 8.462 2.37 10.313-.413 1.852-2.784.236-7.113-3.61-9.67-3.844-2.555-8.46-2.37-10.312.415-1.85 2.784-.235 7.113 3.61 9.67z" fill="#2A5EBC"/><path d="M240.467 211.535c.642 2.3 3.74 3.444 6.92 2.556 3.18-.886 5.236-3.47 4.593-5.77-.642-2.3-3.74-3.444-6.92-2.556s-5.235 3.472-4.593 5.77z" fill="#2A5EBC"/><path d="M287.734 123.8c2.733 1.817 6.014 1.686 7.33-.293 1.315-1.978.166-5.055-2.567-6.872-2.732-1.817-6.014-1.685-7.33.293-1.315 1.98-.166 5.056 2.567 6.873z" fill="#2A5EBC"/><path d="M329.72 152.896c2.733 1.816 6.014 1.685 7.33-.294 1.315-1.978.166-5.055-2.567-6.872-2.732-1.817-6.014-1.686-7.33.293-1.315 1.98-.166 5.056 2.567 6.873z" fill="#2A5EBC"/><path d="M255.093 273.822c-.27 2.7.94 5.03 2.7 5.205 1.76.176 3.404-1.87 3.673-4.57.27-2.7-.94-5.03-2.7-5.205-1.76-.175-3.404 1.87-3.673 4.57z" fill="#2A5EBC"/><path d="M311.625 253.49c2 .985 4.2.61 4.912-.837.713-1.448-.33-3.42-2.33-4.405-2-.985-4.198-.61-4.91.837-.714 1.448.33 3.42 2.328 4.405z" fill="#2A5EBC"/><path d="M168.35 200.48c1.512.894 3.873-.303 5.272-2.672 1.4-2.37 1.307-5.014-.205-5.907-1.513-.893-3.874.304-5.273 2.673-1.4 2.37-1.307 5.014.206 5.907z" fill="#2A5EBC"/><path d="M178.21 182.613c.803 1.54 3.616 1.66 6.28.268 2.666-1.392 4.174-3.77 3.37-5.31-.805-1.54-3.618-1.66-6.283-.266-2.665 1.392-4.173 3.77-3.368 5.31z" fill="#2A5EBC"/><path d="M165.128 181.178c1.415 1.107 3.966.207 5.7-2.01 1.732-2.216 1.99-4.91.576-6.015-1.414-1.106-3.966-.206-5.7 2.01-1.732 2.216-1.99 4.91-.576 6.015z" fill="#2A5EBC"/><path d="M81.143 215.803c4.56 2.24 9.703 1.115 11.486-2.515 1.782-3.63-.47-8.388-5.03-10.628-4.56-2.24-9.702-1.115-11.486 2.515-1.783 3.63.468 8.388 5.029 10.628z" fill="#2A5EBC"/><path d="M87.012 227.716c1.314 1.028 3.683.193 5.292-1.865 1.61-2.057 1.849-4.558.535-5.585-1.315-1.028-3.684-.192-5.293 1.865-1.61 2.058-1.85 4.56-.535 5.586z" fill="#2A5EBC"/><path d="M148.653 180.343c-.263 2.638.92 4.915 2.64 5.087 1.722.17 3.33-1.828 3.593-4.466s-.92-4.915-2.64-5.087c-1.722-.17-3.33 1.828-3.593 4.466z" fill="#2A5EBC"/><path d="M333.24 196.945c.99 1.41 3.765 1.168 6.202-.54 2.437-1.71 3.61-4.237 2.622-5.647-.988-1.41-3.765-1.168-6.202.54-2.437 1.71-3.61 4.237-2.622 5.647z" fill="#2A5EBC"/><path d="M295.694 199.427c1.015 1.448 3.87 1.197 6.376-.56 2.507-1.757 3.716-4.356 2.7-5.804-1.015-1.448-3.87-1.197-6.376.56-2.507 1.757-3.715 4.356-2.7 5.804z" fill="#2A5EBC"/><path d="M177.083 150.493c-.614 3.496.46 6.605 2.4 6.946 1.94.34 4.012-2.217 4.626-5.712.613-3.495-.462-6.605-2.402-6.946-1.94-.34-4.01 2.216-4.625 5.71z" fill="#2A5EBC"/><path d="M326.71 197.84c1.488.88 3.81-.295 5.186-2.624 1.376-2.33 1.283-4.93-.206-5.81-1.49-.88-3.812.295-5.188 2.624-1.375 2.33-1.283 4.93.207 5.81z" fill="#2A5EBC"/><path d="M295.91 181.855c.123 4.015 2.347 7.204 4.965 7.123 2.62-.08 4.64-3.4 4.516-7.416-.123-4.015-2.347-7.204-4.965-7.123-2.62.08-4.64 3.4-4.516 7.415z" fill="#2A5EBC"/><path d="M312.3 273.947c3.678 2.444 7.877 2.594 9.38.335 1.5-2.26-.263-6.072-3.94-8.516-3.677-2.445-7.875-2.595-9.377-.336-1.502 2.26.26 6.072 3.938 8.517z" fill="#2A5EBC"/><path d="M329.337 214.313c.776 1.486 3.488 1.602 6.057.26 2.57-1.343 4.023-3.635 3.247-5.12-.775-1.485-3.487-1.6-6.056-.26-2.57 1.343-4.023 3.635-3.247 5.12z" fill="#2A5EBC"/><path d="M286.807 101.157c.326 1.77 1.473 3.042 2.56 2.84 1.09-.2 1.708-1.797 1.382-3.566-.327-1.77-1.474-3.041-2.562-2.84-1.088.2-1.707 1.797-1.38 3.567z" fill="#2A5EBC"/><path d="M324.87 242.852c1.975.62 4.48-1.763 5.598-5.323 1.116-3.56.42-6.948-1.555-7.568-1.976-.62-4.482 1.764-5.6 5.323-1.115 3.56-.42 6.948 1.556 7.567z" fill="#2A5EBC"/><path d="M325.066 248.59c1.946 1.294 4.285 1.2 5.223-.212.938-1.412.12-3.605-1.826-4.9-1.947-1.293-4.285-1.198-5.224.214-.938 1.41-.12 3.604 1.826 4.898z" fill="#2A5EBC"/><path d="M291.457 222.265c1.34 1.05 3.76.197 5.403-1.903 1.642-2.1 1.886-4.654.545-5.703-1.34-1.05-3.76-.197-5.403 1.903-1.642 2.1-1.886 4.654-.545 5.702z" fill="#2A5EBC"/><path d="M376.803 133.882c1.41 1.1 3.948.207 5.67-1.997 1.725-2.204 1.98-4.883.572-5.985-1.41-1.1-3.947-.207-5.67 1.997-1.725 2.204-1.98 4.883-.572 5.985z" fill="#2A5EBC"/><path d="M285.55 258.287c2.345 2.885 5.743 4.008 7.59 2.507 1.847-1.5 1.443-5.058-.903-7.944-2.346-2.885-5.744-4.008-7.59-2.507-1.848 1.5-1.444 5.058.902 7.944z" fill="#2A5EBC"/><path d="M295.97 275.092c2.283 1.517 5.11 1.276 6.317-.538 1.206-1.815.334-4.515-1.948-6.032-2.282-1.517-5.11-1.276-6.316.54-1.206 1.813-.334 4.514 1.947 6.03z" fill="#2A5EBC"/><path d="M311.95 222.098c-.523 5.256 1.83 9.794 5.258 10.135 3.427.34 6.63-3.643 7.153-8.9.525-5.256-1.83-9.794-5.257-10.135-3.427-.34-6.63 3.643-7.153 8.9z" fill="#2A5EBC"/><path d="M338.41 231.92c1.147.413 2.64-.816 3.337-2.745.696-1.93.33-3.83-.816-4.243-1.145-.413-2.64.815-3.335 2.744-.697 1.93-.332 3.83.815 4.243z" fill="#2A5EBC"/><path d="M341.448 214.244c1.35 1.056 3.786.197 5.44-1.92 1.655-2.114 1.9-4.686.55-5.742-1.35-1.056-3.786-.197-5.44 1.92-1.654 2.115-1.9 4.686-.55 5.742z" fill="#2A5EBC"/><path d="M341.62 243.876c2.06 2.538 5.048 3.526 6.67 2.208 1.62-1.318 1.264-4.443-.8-6.98-2.06-2.538-5.048-3.527-6.67-2.21-1.62 1.32-1.264 4.445.8 6.982z" fill="#2A5EBC"/><path d="M258.582 255.578c2.076 1.38 4.647 1.16 5.744-.49 1.097-1.65.304-4.105-1.772-5.485-2.075-1.38-4.647-1.16-5.744.49-1.096 1.65-.303 4.105 1.772 5.485z" fill="#2A5EBC"/><path d="M342.968 232.012c.734 2.628 4.272 3.936 7.902 2.922 3.63-1.014 5.98-3.966 5.245-6.594-.734-2.628-4.272-3.936-7.902-2.922-3.63 1.014-5.98 3.966-5.245 6.594z" fill="#2A5EBC"/><path d="M158.004 109.125c1.96 1.303 4.314 1.207 5.26-.214.944-1.42.12-3.63-1.838-4.93-1.96-1.304-4.314-1.208-5.26.214-.943 1.42-.12 3.63 1.838 4.93z" fill="#2A5EBC"/><path d="M178.44 89.051c1.216.44 2.8-.866 3.54-2.915.74-2.05.355-4.066-.86-4.505-1.217-.439-2.802.867-3.542 2.916-.74 2.05-.353 4.067.862 4.505z" fill="#2A5EBC"/><path d="M181.708 100.784c2.065 2.54 5.056 3.53 6.68 2.21 1.626-1.32 1.27-4.451-.796-6.992-2.065-2.54-5.056-3.53-6.68-2.209-1.626 1.32-1.27 4.45.796 6.99z" fill="#2A5EBC"/><path d="M182.78 88.99c.765 2.735 4.45 4.096 8.234 3.04 3.784-1.057 6.23-4.132 5.467-6.867-.763-2.736-4.45-4.097-8.233-3.04-3.783 1.056-6.23 4.13-5.466 6.866z" fill="#2A5EBC"/><path d="M320.62 108.823c2.506 1.147 5.822-.73 7.408-4.192 1.585-3.46.84-7.197-1.665-8.345-2.505-1.147-5.822.73-7.407 4.192s-.84 7.2 1.665 8.346z" fill="#2A5EBC"/><path d="M278.055 163.355c1.216.438 2.8-.867 3.54-2.917.74-2.05.355-4.066-.86-4.505-1.217-.44-2.802.867-3.542 2.916-.74 2.05-.353 4.066.862 4.505z" fill="#2A5EBC"/><path d="M275.857 151.803c2.165 2.664 5.3 3.7 7.003 2.317 1.703-1.384 1.328-4.665-.837-7.328-2.165-2.664-5.3-3.7-7.003-2.317-1.703 1.383-1.328 4.665.837 7.328z" fill="#2A5EBC"/><path d="M276.286 140.535c.78 2.788 4.534 4.175 8.388 3.1 3.854-1.077 6.347-4.21 5.568-6.998-.778-2.788-4.534-4.175-8.388-3.1-3.854 1.077-6.347 4.21-5.568 6.998z" fill="#2A5EBC"/><path d="M306.556 148.936c.768 2.75 4.473 4.12 8.275 3.058 3.802-1.062 6.262-4.153 5.493-6.903-.768-2.75-4.473-4.12-8.274-3.057-3.803 1.06-6.262 4.152-5.494 6.903z" fill="#2A5EBC"/><path d="M366.752 203.38c-.284 2.846.99 5.302 2.847 5.487 1.855.185 3.59-1.972 3.873-4.818.283-2.847-.992-5.303-2.848-5.488-1.856-.185-3.59 1.972-3.873 4.818z" fill="#2A5EBC"/><path d="M237.402 40.767c1.775.32 3.636-1.76 4.158-4.646.522-2.885-.494-5.485-2.27-5.806-1.773-.32-3.635 1.76-4.157 4.646-.52 2.886.494 5.486 2.27 5.807z" fill="#2A5EBC"/><path d="M249.598 86.77c.733 1.74 3.623 2.185 6.455.992 2.83-1.192 4.533-3.57 3.8-5.31-.733-1.74-3.623-2.185-6.454-.993-2.833 1.192-4.535 3.57-3.802 5.31z" fill="#2A5EBC"/><path d="M249.442 111.467c-.437 4.183 1.17 7.78 3.592 8.033 2.42.253 4.738-2.934 5.175-7.117.436-4.184-1.172-7.78-3.593-8.034-2.42-.254-4.738 2.933-5.175 7.117z" fill="#2A5EBC"/><path d="M310.314 164.146c.674 1.6 3.01 2.146 5.22 1.216 2.206-.93 3.45-2.98 2.775-4.583-.675-1.602-3.012-2.147-5.22-1.217-2.207.93-3.45 2.98-2.776 4.583z" fill="#2A5EBC"/><path d="M266.846 79.164c.817 2.452 2.75 4.017 4.318 3.495 1.568-.523 2.176-2.935 1.36-5.387-.818-2.453-2.75-4.018-4.32-3.496-1.567.523-2.175 2.934-1.358 5.387z" fill="#2A5EBC"/><path d="M205.235 53.457c.808 1.92 3.417 2.652 5.828 1.636 2.41-1.015 3.71-3.393 2.903-5.312-.808-1.918-3.417-2.65-5.828-1.635-2.41 1.015-3.71 3.394-2.903 5.312z" fill="#2A5EBC"/><path d="M180.353 114.656c.683 1.63 3.39 2.046 6.044.93 2.655-1.113 4.253-3.336 3.57-4.965-.684-1.627-3.39-2.044-6.045-.93-2.655 1.115-4.253 3.338-3.57 4.966z" fill="#2A5EBC"/><path d="M182.792 165.655c2.42 2.985 5.725 4.316 7.382 2.973 1.656-1.343 1.037-4.85-1.384-7.836-2.42-2.985-5.724-4.316-7.38-2.973-1.657 1.34-1.038 4.85 1.382 7.835z" fill="#2A5EBC"/><path d="M215.83 119.965c3.586 1.53 7.18 1.168 8.024-.81.845-1.98-1.38-4.825-4.966-6.356-3.588-1.533-7.18-1.17-8.026.81-.844 1.978 1.38 4.823 4.967 6.355z" fill="#2A5EBC"/><path d="M335.37 170.262c1.285 3.064 5.756 4.11 9.986 2.334 4.23-1.775 6.615-5.7 5.33-8.763-1.287-3.064-5.76-4.11-9.988-2.334-4.23 1.774-6.616 5.698-5.33 8.762z" fill="#2A5EBC"/><path d="M203.46 102.673c.21 2.146 3.097 3.62 6.452 3.294 3.355-.326 5.906-2.33 5.697-4.475-.21-2.145-3.098-3.62-6.453-3.294-3.355.326-5.906 2.33-5.697 4.475z" fill="#2A5EBC"/><path d="M204.73 115.884c1.72.557 3.738-.917 4.507-3.29.77-2.376 0-4.752-1.72-5.31-1.72-.556-3.737.918-4.506 3.292-.768 2.375.002 4.75 1.72 5.308z" fill="#2A5EBC"/><path d="M327.77 169.905c1.918.62 4.17-1.024 5.027-3.675.86-2.65 0-5.303-1.918-5.924-1.92-.622-4.17 1.024-5.03 3.674-.857 2.65.002 5.304 1.92 5.925z" fill="#2A5EBC"/><path d="M370.116 192.77c1.94.628 4.217-1.036 5.085-3.716.87-2.68 0-5.362-1.94-5.99-1.94-.63-4.217 1.034-5.085 3.715-.868 2.68 0 5.36 1.94 5.99z" fill="#2A5EBC"/><path d="M180.603 48.412c1.005 2.395 4.983 3.008 8.884 1.37 3.902-1.637 6.25-4.906 5.245-7.3-1.005-2.395-4.983-3.008-8.884-1.37-3.902 1.637-6.25 4.906-5.245 7.3z" fill="#2A5EBC"/><path d="M253.458 142.18c1.67.398 3.585-1.622 4.275-4.513.69-2.89-.105-5.558-1.776-5.957-1.672-.4-3.586 1.62-4.276 4.512-.69 2.89.107 5.558 1.778 5.957z" fill="#2A5EBC"/><path d="M260.468 171.06c2.363 1.394 4.918 1.442 5.707.106.79-1.336-.487-3.55-2.85-4.946-2.362-1.395-4.916-1.443-5.706-.107-.79 1.336.486 3.55 2.848 4.946z" fill="#2A5EBC"/><path d="M335.818 67.71c2.977 1.611 6.85.225 8.647-3.096 1.798-3.322.84-7.321-2.137-8.933-2.978-1.61-6.85-.225-8.647 3.097-1.797 3.321-.84 7.32 2.138 8.933z" fill="#2A5EBC"/><path d="M260.753 162.44c2.055 3.344 5.225 5.13 7.08 3.99 1.857-1.142 1.697-4.777-.358-8.12s-5.225-5.13-7.08-3.988c-1.858 1.14-1.697 4.776.358 8.12z" fill="#2A5EBC"/><path d="M241.134 81.56c2.077 3.38 5.28 5.184 7.157 4.031 1.877-1.152 1.714-4.826-.363-8.205-2.076-3.38-5.28-5.185-7.157-4.032-1.876 1.153-1.713 4.827.364 8.207z" fill="#2A5EBC"/><path d="M279.733 173.632c.46 1.668 2.697 2.507 5 1.874 2.3-.633 3.796-2.498 3.337-4.166-.458-1.668-2.697-2.507-5-1.874-2.3.633-3.796 2.5-3.337 4.166z" fill="#2A5EBC"/><path d="M243.38 158.94c1.992 2.114 4.727 2.774 6.107 1.473 1.38-1.3.882-4.07-1.112-6.184-1.994-2.115-4.73-2.775-6.108-1.474-1.38 1.3-.882 4.07 1.112 6.184z" fill="#2A5EBC"/><path d="M298.578 172.486c1.68.536 3.753-1.25 4.627-3.99.874-2.738.22-5.394-1.462-5.93-1.68-.536-3.752 1.25-4.626 3.99-.874 2.738-.22 5.393 1.46 5.93z" fill="#2A5EBC"/><path d="M314.35 182.774c1.762.562 3.933-1.31 4.85-4.182.916-2.872.23-5.656-1.532-6.218-1.763-.563-3.934 1.31-4.85 4.182-.917 2.872-.23 5.656 1.53 6.218z" fill="#2A5EBC"/><path d="M138.916 158.45c.12 3.88 2.27 6.96 4.805 6.882 2.534-.08 4.49-3.287 4.37-7.167-.12-3.88-2.27-6.96-4.804-6.882-2.534.078-4.49 3.287-4.37 7.166z" fill="#2A5EBC"/><path d="M193.502 195.37c.115 4.22 2.442 7.58 5.197 7.505 2.754-.075 4.893-3.558 4.778-7.78-.116-4.22-2.443-7.582-5.198-7.506-2.755.074-4.894 3.557-4.778 7.78z" fill="#2A5EBC"/><path d="M204.78 206.272c1.614.515 3.602-1.195 4.44-3.82.837-2.625.207-5.17-1.408-5.686-1.615-.515-3.603 1.195-4.44 3.82-.838 2.625-.208 5.17 1.407 5.686z" fill="#2A5EBC"/><path d="M151.327 75.602c.124 4.027 2.355 7.225 4.98 7.144 2.627-.082 4.655-3.412 4.53-7.438-.124-4.027-2.354-7.225-4.98-7.144-2.627.082-4.655 3.412-4.53 7.438z" fill="#2A5EBC"/><path d="M155.845 67.078c1.663.53 3.71-1.233 4.574-3.94.862-2.706.214-5.33-1.448-5.86-1.663-.53-3.71 1.233-4.574 3.94-.864 2.706-.216 5.33 1.447 5.86z" fill="#2A5EBC"/><path d="M10.89 178.998c1.876 1.114 4.783-.316 6.492-3.195 1.708-2.878 1.572-6.115-.305-7.23-1.876-1.113-4.783.317-6.492 3.196-1.708 2.877-1.572 6.114.305 7.228z" fill="#2A5EBC"/><path d="M17.575 168.407c.912 1.093 3.093.778 4.87-.705 1.776-1.483 2.477-3.57 1.564-4.664-.913-1.094-3.093-.778-4.87.704-1.777 1.483-2.477 3.572-1.565 4.665z" fill="#2A5EBC"/><path d="M286.222 97.75c1.77.423 3.795-1.712 4.524-4.769.73-3.055-.113-5.875-1.882-6.297-1.77-.423-3.795 1.713-4.524 4.77-.73 3.056.113 5.876 1.882 6.298z" fill="#2A5EBC"/><path d="M302.17 102.76c1.908 3.104 4.853 4.763 6.578 3.703 1.724-1.06 1.574-4.436-.334-7.542-1.91-3.105-4.854-4.763-6.58-3.703-1.723 1.06-1.573 4.436.335 7.542z" fill="#2A5EBC"/><path d="M254.648 125.984c.472 2.435 2.118 4.164 3.675 3.862 1.558-.302 2.438-2.52 1.966-4.956-.474-2.435-2.12-4.164-3.677-3.862-1.557.302-2.437 2.52-1.965 4.956z" fill="#2A5EBC"/><path d="M285.152 154.28c-.076 2.258 2.726 4.185 6.257 4.302 3.53.118 6.454-1.618 6.53-3.877.074-2.26-2.727-4.185-6.26-4.302-3.53-.118-6.453 1.618-6.528 3.877z" fill="#2A5EBC"/><path d="M100.863 139.502c1.12.404 2.583-.8 3.265-2.688.682-1.89.326-3.75-.796-4.154-1.12-.404-2.582.8-3.264 2.688-.682 1.89-.326 3.75.795 4.154z" fill="#2A5EBC"/><path d="M98.484 128.297c2.214 2.724 5.42 3.784 7.163 2.368 1.74-1.415 1.36-4.77-.855-7.495-2.214-2.723-5.42-3.784-7.162-2.368-1.742 1.416-1.36 4.77.854 7.495z" fill="#2A5EBC"/><path d="M107.896 130.694c-.074 2.24 2.703 4.15 6.203 4.265 3.5.116 6.398-1.605 6.472-3.844.075-2.24-2.703-4.15-6.203-4.266-3.5-.117-6.4 1.604-6.474 3.844z" fill="#2A5EBC"/><path d="M289.054 246.684c1.21.436 2.785-.863 3.52-2.9.736-2.04.353-4.046-.856-4.482-1.208-.436-2.784.863-3.52 2.9-.736 2.04-.352 4.046.856 4.482z" fill="#2A5EBC"/><path d="M286.71 235.267c2.258 2.778 5.53 3.86 7.308 2.414 1.777-1.444 1.388-4.868-.87-7.645-2.257-2.778-5.53-3.858-7.307-2.413-1.776 1.445-1.387 4.868.87 7.645z" fill="#2A5EBC"/><path d="M296.167 237.632c-.075 2.247 2.712 4.163 6.224 4.28 3.513.117 6.42-1.61 6.495-3.857.075-2.247-2.712-4.164-6.224-4.28-3.51-.117-6.418 1.61-6.493 3.857z" fill="#2A5EBC"/><path d="M80.84 156.4c2.096 2.58 5.133 3.586 6.781 2.246 1.65-1.34 1.287-4.518-.81-7.097-2.097-2.58-5.133-3.586-6.782-2.246-1.648 1.34-1.285 4.518.812 7.097z" fill="#2A5EBC"/><path d="M81.613 145.09c.73 2.612 4.25 3.912 7.861 2.903 3.612-1.008 5.948-3.944 5.218-6.557-.73-2.613-4.249-3.913-7.86-2.904-3.612 1.008-5.948 3.944-5.219 6.557z" fill="#2A5EBC"/><path d="M70.032 163.18c1.95 3.173 4.957 4.867 6.717 3.785 1.76-1.082 1.607-4.53-.342-7.702-1.95-3.172-4.957-4.866-6.718-3.784-1.76 1.08-1.607 4.53.342 7.7z" fill="#2A5EBC"/><path d="M89.96 158.932c-.075 2.282 2.757 4.228 6.327 4.347 3.57.118 6.526-1.636 6.602-3.918.074-2.282-2.758-4.228-6.328-4.347-3.57-.118-6.525 1.635-6.601 3.917z" fill="#2A5EBC"/><path d="M297.08 136.344c2.443 1.16 5.724-.637 7.327-4.014 1.603-3.378.922-7.056-1.522-8.216-2.443-1.16-5.724.637-7.327 4.015-1.603 3.376-.922 7.054 1.522 8.214z" fill="#2A5EBC"/><path d="M278.427 113.86c1.744 1.85 4.138 2.426 5.345 1.287 1.208-1.14.774-3.562-.97-5.412-1.745-1.85-4.138-2.426-5.346-1.287-1.208 1.138-.773 3.56.97 5.41z" fill="#2A5EBC"/><path d="M365.133 41.779c1.698.306 3.48-1.687 3.98-4.451.5-2.766-.472-5.256-2.17-5.563-1.7-.307-3.48 1.685-3.98 4.45-.5 2.765.47 5.255 2.17 5.562z" fill="#2A5EBC"/><path d="M346.736 56.4c.615 1.462 3.043 1.835 5.422.833 2.38-1.001 3.808-2.999 3.192-4.46-.615-1.463-3.043-1.837-5.422-.835-2.38 1.002-3.808 3-3.192 4.462z" fill="#2A5EBC"/><path d="M390.505 107.562c-.316 3.02.845 5.618 2.592 5.8 1.747.184 3.42-2.118 3.736-5.14.315-3.02-.845-5.618-2.593-5.8-1.747-.183-3.42 2.118-3.735 5.14z" fill="#2A5EBC"/><path d="M377.073 89.901c3.47 1.483 6.944 1.134 7.76-.777.816-1.912-1.336-4.662-4.806-6.143-3.47-1.481-6.945-1.133-7.76.779-.816 1.91 1.335 4.66 4.806 6.141z" fill="#2A5EBC"/><path d="M365.025 59.978c2.165 2.914 5.322 4.234 7.053 2.949 1.73-1.285 1.378-4.69-.786-7.604-2.165-2.914-5.322-4.234-7.053-2.949-1.73 1.286-1.38 4.69.785 7.604z" fill="#2A5EBC"/><path d="M361.006 88.343c2.258.866 4.873-.477 5.84-3 .965-2.522-.082-5.268-2.34-6.134-2.26-.866-4.873.477-5.84 3-.966 2.522.08 5.268 2.34 6.133z" fill="#2A5EBC"/><path d="M378.84 102.537c2.42 2.985 5.724 4.316 7.38 2.973 1.656-1.343 1.037-4.85-1.383-7.836-2.42-2.985-5.725-4.316-7.38-2.973-1.657 1.344-1.038 4.852 1.382 7.837z" fill="#2A5EBC"/><path d="M353.917 78.974c.672 1.594 3 2.135 5.2 1.209 2.2-.927 3.44-2.97 2.77-4.565-.672-1.594-3-2.135-5.2-1.209-2.2.926-3.44 2.97-2.77 4.564z" fill="#2A5EBC"/><path d="M288.96 65.452c.634 1.509 2.838 2.02 4.92 1.144 2.084-.877 3.257-2.811 2.622-4.32-.635-1.509-2.84-2.02-4.922-1.144-2.083.877-3.256 2.811-2.62 4.32z" fill="#2A5EBC"/><path d="M353.594 178.957c.86 2.585 2.9 4.234 4.55 3.684 1.653-.55 2.294-3.09 1.433-5.676-.86-2.585-2.898-4.234-4.55-3.684-1.652.55-2.294 3.092-1.433 5.677z" fill="#2A5EBC"/><path d="M374.556 48.679c.227 2.333 3.368 3.938 7.015 3.583 3.65-.355 6.422-2.535 6.195-4.869-.227-2.334-3.368-3.938-7.016-3.584-3.648.355-6.42 2.535-6.194 4.869z" fill="#2A5EBC"/><path d="M371.26 74.8c2.79.905 6.067-1.49 7.316-5.349 1.25-3.857 0-7.717-2.79-8.621-2.79-.905-6.066 1.49-7.316 5.348-1.25 3.859 0 7.72 2.79 8.623z" fill="#2A5EBC"/><path d="M399.05 101.855c3.768 3.077 8.45 3.578 10.457 1.12 2.007-2.457.58-6.944-3.188-10.02-3.77-3.078-8.45-3.58-10.457-1.121-2.008 2.457-.58 6.944 3.187 10.02z" fill="#2A5EBC"/><path d="M213.48 243.045c1.143 2.192 3.358 3.297 4.947 2.468 1.588-.83 1.948-3.278.804-5.47-1.144-2.193-3.36-3.298-4.947-2.47-1.59.83-1.948 3.28-.804 5.472z" fill="#2A5EBC"/><path d="M208.112 233.66c1.925 2.748 4.852 4.018 6.538 2.837 1.687-1.182 1.493-4.367-.432-7.115-1.925-2.748-4.853-4.018-6.54-2.836-1.685 1.18-1.492 4.366.434 7.114z" fill="#2A5EBC"/><path d="M360.452 154.984c-.336 3.222.9 5.99 2.764 6.186 1.863.194 3.646-2.26 3.982-5.48.337-3.222-.9-5.992-2.763-6.186-1.863-.195-3.646 2.26-3.983 5.48z" fill="#2A5EBC"/><path d="M351.204 129.845c3.488 1.49 7.057.96 7.972-1.184.915-2.14-1.172-5.085-4.66-6.574-3.487-1.49-7.056-.96-7.97 1.184-.916 2.142 1.17 5.086 4.658 6.575z" fill="#2A5EBC"/><path d="M345.5 146.53c3.433 4.236 8.125 6.123 10.48 4.215 2.353-1.91 1.477-6.89-1.957-11.125s-8.126-6.12-10.48-4.213c-2.353 1.908-1.478 6.89 1.956 11.124z" fill="#2A5EBC"/><path d="M167.577 70.84c.995 2.37 4.93 2.977 8.79 1.358 3.858-1.62 6.18-4.854 5.185-7.224-.995-2.37-4.93-2.977-8.788-1.357-3.86 1.62-6.18 4.853-5.187 7.223z" fill="#2A5EBC"/><path d="M376.343 121.67c.846 2.54 2.848 4.162 4.47 3.62 1.624-.54 2.253-3.038 1.407-5.578-.847-2.54-2.848-4.162-4.47-3.622-1.624.54-2.253 3.04-1.407 5.58z" fill="#2A5EBC"/><path d="M349.017 99.226c.23 2.357 3.403 3.977 7.09 3.62 3.685-.36 6.488-2.56 6.258-4.919-.23-2.357-3.403-3.977-7.09-3.619-3.685.359-6.487 2.56-6.258 4.918z" fill="#2A5EBC"/><path d="M127.773 133.593c1.39 1.087 3.9.2 5.604-1.978 1.704-2.18 1.96-4.828.57-5.915-1.39-1.087-3.9-.2-5.604 1.978-1.705 2.18-1.96 4.828-.57 5.915z" fill="#2A5EBC"/><path d="M143.523 139.834c2.32.89 5.005-.49 5.998-3.08.994-2.592-.082-5.413-2.402-6.302-2.32-.89-5.005.49-5.998 3.08-.993 2.592.083 5.414 2.403 6.302z" fill="#2A5EBC"/><path d="M136.563 130.31c.655 1.555 2.927 2.082 5.074 1.178 2.147-.904 3.356-2.897 2.702-4.452-.656-1.555-2.927-2.083-5.074-1.18-2.148.905-3.357 2.9-2.703 4.454z" fill="#2A5EBC"/><path d="M326.458 94.025c.708 1.68 2.993 2.32 5.104 1.432 2.112-.89 3.25-2.972 2.542-4.652-.707-1.68-2.992-2.32-5.103-1.432-2.11.89-3.25 2.972-2.542 4.652z" fill="#2A5EBC"/><path d="M122.078 111.502c.74 3.75 3.54 6.358 6.25 5.822 2.71-.535 4.307-4.01 3.566-7.76-.74-3.752-3.54-6.36-6.25-5.823-2.71.536-4.307 4.01-3.566 7.762z" fill="#2A5EBC"/><path d="M124.28 102.033c1.635.997 3.977.14 5.23-1.915 1.254-2.054.945-4.53-.69-5.527-1.636-.996-3.978-.14-5.23 1.916-1.255 2.055-.946 4.53.69 5.527z" fill="#2A5EBC"/><path d="M344.556 115.682c1.73.56 3.76-.923 4.534-3.312.774-2.39 0-4.78-1.732-5.34-1.73-.56-3.76.92-4.534 3.31-.774 2.39.002 4.78 1.732 5.342z" fill="#2A5EBC"/><path d="M366.898 137.72c2.08 1.7 4.665 1.975 5.774.617 1.11-1.357.32-3.835-1.76-5.534-2.08-1.7-4.664-1.975-5.773-.617-1.11 1.358-.323 3.835 1.758 5.534z" fill="#2A5EBC"/><path d="M372.395 155.57c2.43.58 5.215-2.355 6.218-6.556 1.003-4.2-.156-8.076-2.587-8.657-2.432-.58-5.216 2.355-6.22 6.556-1 4.2.157 8.076 2.59 8.657z" fill="#2A5EBC"/><path d="M379.96 167.11c.007 5.72 2.66 10.354 5.927 10.35 3.266-.005 5.908-4.645 5.9-10.365-.007-5.72-2.66-10.352-5.927-10.348-3.266.004-5.908 4.644-5.9 10.364z" fill="#2A5EBC"/><path d="M216.203 91.779c-.31 2.978.834 5.539 2.56 5.719 1.723.18 3.373-2.09 3.685-5.07.31-2.978-.835-5.54-2.56-5.72-1.723-.18-3.373 2.09-3.685 5.069z" fill="#2A5EBC"/><path d="M202.323 85.33c3.79 4.674 8.965 6.758 11.56 4.655 2.593-2.103 1.624-7.598-2.166-12.272-3.79-4.674-8.965-6.758-11.56-4.655-2.593 2.103-1.624 7.598 2.166 12.272z" fill="#2A5EBC"/><path d="M227.9 92.291c2.42.58 5.193-2.343 6.19-6.525 1-4.182-.154-8.04-2.574-8.618-2.42-.577-5.192 2.344-6.19 6.526-.998 4.182.155 8.04 2.575 8.618z" fill="#2A5EBC"/><path d="M235.434 103.88c.007 5.734 2.67 10.38 5.948 10.376 3.278-.004 5.93-4.657 5.922-10.392-.008-5.735-2.67-10.381-5.95-10.377-3.276.005-5.927 4.657-5.92 10.392z" fill="#2A5EBC"/><path d="M368.82 170c.56 2.892 2.512 4.945 4.358 4.587 1.847-.358 2.89-2.992 2.328-5.883-.56-2.89-2.512-4.945-4.358-4.587-1.846.358-2.89 2.992-2.328 5.883z" fill="#2A5EBC"/><path d="M328.778 137.125c2.656 1.308 5.46 1.046 6.264-.585.804-1.632-.697-4.015-3.353-5.324-2.657-1.308-5.46-1.046-6.265.586-.804 1.632.698 4.015 3.353 5.323z" fill="#2A5EBC"/><path d="M401.027 56.564c.882 2.047 4.3 2.543 7.633 1.107 3.334-1.435 5.32-4.26 4.44-6.306-.882-2.048-4.3-2.543-7.634-1.107-3.333 1.436-5.32 4.26-4.44 6.307z" fill="#2A5EBC"/><path d="M435.267 53.858c2.417 1.607 5.177 1.705 6.164.22.99-1.486-.17-3.993-2.587-5.6-2.417-1.607-5.177-1.705-6.164-.22-.99 1.486.17 3.993 2.587 5.6z" fill="#2A5EBC"/><path d="M403.593 38.632c2.182 2.685 5.343 3.73 7.06 2.333 1.72-1.396 1.342-4.704-.84-7.389-2.182-2.684-5.343-3.729-7.06-2.333-1.72 1.397-1.342 4.705.84 7.39z" fill="#2A5EBC"/><path d="M423.34 66.836c3.975 2.642 8.63 2.628 10.396-.03 1.768-2.66-.02-6.956-3.994-9.598-3.974-2.641-8.628-2.628-10.395.031-1.768 2.658.02 6.955 3.994 9.596z" fill="#2A5EBC"/><path d="M235.873 157.334c2.122 1.042 4.515.52 5.344-1.17.83-1.687-.22-3.9-2.34-4.943-2.123-1.042-4.516-.52-5.345 1.17-.83 1.687.22 3.9 2.34 4.944z" fill="#2A5EBC"/><path d="M222.224 159.182c3.958 2.63 8.593 2.617 10.355-.033 1.76-2.65-.02-6.93-3.978-9.56-3.958-2.632-8.594-2.617-10.355.032-1.76 2.65.02 6.93 3.977 9.56z" fill="#2A5EBC"/><path d="M422.38 37.62c.477 1.707 2.776 2.556 5.135 1.898 2.36-.66 3.885-2.578 3.41-4.285-.478-1.707-2.777-2.556-5.136-1.897-2.36.659-3.887 2.577-3.41 4.284z" fill="#2A5EBC"/><path d="M323.916 125.3c.49 2.53 2.197 4.328 3.812 4.015 1.614-.313 2.525-2.618 2.035-5.148-.49-2.53-2.198-4.328-3.812-4.015-1.614.313-2.525 2.618-2.034 5.148z" fill="#2A5EBC"/><path d="M396.486 124.603c1.94 2.058 4.602 2.7 5.945 1.434 1.345-1.267.86-3.962-1.08-6.02s-4.603-2.7-5.946-1.434c-1.343 1.266-.86 3.962 1.082 6.02z" fill="#2A5EBC"/><path d="M257.435 37.676c-.348 3.338.933 6.207 2.862 6.408 1.93.202 3.776-2.34 4.124-5.678.35-3.337-.932-6.206-2.86-6.408-1.93-.201-3.776 2.341-4.125 5.678z" fill="#2A5EBC"/><path d="M232.152 24.999c2.603 3.209 6.158 4.64 7.94 3.194 1.783-1.445 1.118-5.219-1.485-8.43-2.603-3.21-6.158-4.64-7.94-3.195-1.783 1.444-1.118 5.218 1.485 8.429z" fill="#2A5EBC"/><path d="M266.392 24.063c.814 2.441 2.738 4 4.298 3.48s2.166-2.92 1.353-5.362c-.813-2.44-2.738-3.999-4.298-3.48-1.56.52-2.166 2.921-1.353 5.363z" fill="#2A5EBC"/><path d="M251.648 20.995c2.22 1.814 4.98 2.11 6.162.663 1.183-1.448.34-4.092-1.88-5.906-2.222-1.813-4.98-2.11-6.163-.662-1.182 1.448-.34 4.091 1.88 5.905z" fill="#2A5EBC"/><path d="M315.35 72.497c.51 1.854 3.373 2.684 6.396 1.853 3.022-.831 5.06-3.008 4.55-4.863-.51-1.854-3.374-2.684-6.397-1.853-3.023.831-5.06 3.008-4.55 4.863z" fill="#2A5EBC"/><path d="M275.47 30.617c1.685.403 3.616-1.633 4.31-4.546.696-2.912-.107-5.6-1.793-6.003-1.686-.403-3.617 1.633-4.313 4.546-.695 2.914.108 5.602 1.795 6.004z" fill="#2A5EBC"/><path d="M270.675 60.397c2.312 4.148 6.185 6.396 8.648 5.022 2.464-1.375 2.587-5.85.275-9.998-2.313-4.147-6.185-6.395-8.65-5.021-2.463 1.375-2.586 5.85-.273 9.997z" fill="#2A5EBC"/><path d="M305.967 75.622c2.375 1.286 5.897-.62 7.867-4.259 1.97-3.638 1.64-7.63-.736-8.915-2.376-1.286-5.898.62-7.867 4.26-1.968 3.637-1.64 7.629.737 8.914z" fill="#2A5EBC"/><path d="M405.81 78.94c.49 1.787 3.25 2.587 6.16 1.786 2.91-.8 4.87-2.897 4.38-4.685-.492-1.786-3.25-2.586-6.16-1.786-2.91.8-4.87 2.898-4.38 4.685z" fill="#2A5EBC"/><path d="M396.376 81.841c2.276 1.234 5.653-.595 7.54-4.084 1.89-3.488 1.574-7.315-.703-8.547-2.277-1.234-5.653.595-7.54 4.084-1.89 3.488-1.574 7.315.703 8.547z" fill="#2A5EBC"/><path d="M298.156 35.079c1.884 3.065 4.79 4.703 6.492 3.657 1.702-1.045 1.553-4.378-.33-7.445-1.886-3.066-4.793-4.704-6.494-3.658-1.7 1.045-1.553 4.379.332 7.445z" fill="#2A5EBC"/><path d="M305.992 51.47c.92 3.343 5.406 5.025 10.022 3.756 4.616-1.27 7.612-5.009 6.693-8.352-.92-3.343-5.407-5.025-10.022-3.755-4.616 1.268-7.612 5.007-6.693 8.35z" fill="#2A5EBC"/><path d="M264.723 45.413c.583 3.005 2.61 5.14 4.53 4.768 1.918-.371 3-3.109 2.418-6.114-.582-3.005-2.61-5.14-4.528-4.768-1.92.373-3 3.11-2.42 6.115z" fill="#2A5EBC"/><path d="M287.342 75.123c-.074 2.224 2.68 4.12 6.154 4.236 3.474.114 6.35-1.595 6.423-3.819.073-2.223-2.683-4.12-6.156-4.235-3.473-.115-6.35 1.594-6.422 3.818z" fill="#2A5EBC"/><path d="M304.813 90.54c.952 3.464 5.254 5.3 9.608 4.103 4.356-1.198 7.114-4.975 6.162-8.438-.952-3.463-5.254-5.3-9.61-4.102-4.353 1.197-7.11 4.975-6.16 8.438z" fill="#2A5EBC"/><path d="M106.155 115.18c.503 1.83 3.324 2.647 6.302 1.828 2.977-.82 4.984-2.964 4.48-4.793-.502-1.828-3.323-2.647-6.3-1.828-2.978.82-4.985 2.965-4.482 4.793z" fill="#2A5EBC"/><path d="M96.722 118.29c2.355 1.274 5.848-.617 7.8-4.225 1.953-3.607 1.627-7.565-.73-8.84-2.354-1.274-5.846.617-7.798 4.224-1.953 3.607-1.627 7.565.728 8.84z" fill="#2A5EBC"/><path d="M104.69 150.274c.94 3.418 5.183 5.232 9.478 4.05 4.294-1.18 7.014-4.908 6.074-8.326-.94-3.418-5.183-5.232-9.478-4.05-4.295 1.18-7.014 4.908-6.074 8.326z" fill="#2A5EBC"/><path d="M288.814 41.848c3.297 3.498 7.818 4.59 10.1 2.439 2.28-2.15 1.456-6.729-1.84-10.226-3.298-3.496-7.82-4.588-10.1-2.437-2.282 2.15-1.458 6.728 1.84 10.225z" fill="#2A5EBC"/><path d="M335.467 52.284c1.652.527 3.686-1.225 4.543-3.913.858-2.686.214-5.292-1.438-5.82-1.652-.526-3.686 1.226-4.543 3.913-.86 2.688-.215 5.294 1.437 5.82z" fill="#2A5EBC"/><path d="M244.368 8.833c2.144 3.488 5.453 5.35 7.392 4.159 1.94-1.192 1.772-4.985-.372-8.473-2.143-3.49-5.453-5.351-7.39-4.16-1.94 1.192-1.774 4.985.37 8.473z" fill="#2A5EBC"/><path d="M316.298 31.637c-.074 2.216 2.68 4.106 6.148 4.222 3.47.114 6.342-1.59 6.415-3.805.075-2.216-2.678-4.107-6.147-4.222-3.47-.115-6.34 1.588-6.415 3.804z" fill="#2A5EBC"/><path d="M346.09 41.464c.496 1.798 2.73 2.752 4.99 2.13 2.262-.622 3.694-2.583 3.2-4.382-.495-1.799-2.73-2.753-4.99-2.13-2.26.62-3.693 2.583-3.2 4.382z" fill="#2A5EBC"/><path d="M259.94 97.383c1.005 3.657 5.544 5.597 10.137 4.334 4.594-1.263 7.502-5.251 6.497-8.908-1.006-3.658-5.545-5.598-10.138-4.335-4.593 1.263-7.502 5.251-6.496 8.908z" fill="#2A5EBC"/><path d="M178.363 132.65c-.453 4.33 1.212 8.052 3.717 8.314 2.506.26 4.904-3.037 5.356-7.367.453-4.33-1.212-8.052-3.717-8.314-2.507-.262-4.905 3.036-5.357 7.366z" fill="#2A5EBC"/><path d="M184.94 124.293c2.005 1.637 4.496 1.905 5.563.598 1.067-1.305.307-3.692-1.7-5.33-2.004-1.637-4.495-1.905-5.562-.6-1.066 1.308-.306 3.695 1.7 5.333z" fill="#2A5EBC"/><path d="M196.425 304.518c-.305 2.925.82 5.44 2.513 5.617 1.694.177 3.314-2.05 3.62-4.976.306-2.927-.82-5.44-2.513-5.618-1.693-.177-3.314 2.05-3.62 4.976z" fill="#2A5EBC"/><path d="M266.23 130.77c.186 1.826 1.245 3.213 2.365 3.1 1.12-.116 1.878-1.687 1.692-3.512-.186-1.825-1.244-3.212-2.365-3.098-1.12.114-1.878 1.686-1.692 3.51z" fill="#2A5EBC"/><path d="M270.31 127.134c1.634.306 3.39-1.738 3.917-4.564.528-2.827-.37-5.366-2.006-5.67-1.634-.307-3.39 1.736-3.917 4.563-.528 2.826.37 5.365 2.006 5.67z" fill="#2A5EBC"/><path d="M353.05 196.914c.543 1.95 3.16 2.922 5.844 2.173 2.683-.75 4.417-2.938 3.873-4.887-.545-1.95-3.16-2.922-5.845-2.172-2.684.75-4.418 2.937-3.873 4.886z" fill="#2A5EBC"/><path d="M345.728 201.45c2.662.86 5.785-1.422 6.976-5.1 1.19-3.677 0-7.358-2.663-8.22-2.66-.862-5.784 1.42-6.975 5.1-1.19 3.677 0 7.357 2.663 8.22z" fill="#2A5EBC"/><path d="M200.01 132.384c2.753 1.23 5.562.936 6.274-.658.712-1.593-.94-3.882-3.694-5.112-2.752-1.23-5.56-.936-6.272.657-.713 1.595.94 3.884 3.693 5.114z" fill="#2A5EBC"/><path d="M207.804 150.3c1.942 1.844 4.603 2.194 5.943.783 1.34-1.412.853-4.05-1.09-5.895-1.94-1.844-4.602-2.194-5.943-.783-1.34 1.412-.852 4.05 1.09 5.895z" fill="#2A5EBC"/><path d="M198.873 140.316c.632 2.75 4.223 4.27 8.02 3.4 3.8-.873 6.366-3.81 5.734-6.56-.63-2.748-4.222-4.27-8.02-3.398-3.798.872-6.365 3.808-5.734 6.558z" fill="#2A5EBC"/><path d="M248.934 193.684c.566 2.024 3.278 3.035 6.058 2.258 2.78-.776 4.577-3.046 4.01-5.07-.564-2.024-3.276-3.035-6.057-2.26-2.78.778-4.576 3.048-4.01 5.072z" fill="#2A5EBC"/><path d="M260.787 197.436c1.805 1.915 4.282 2.51 5.532 1.333 1.25-1.18.8-3.688-1.006-5.603-1.805-1.914-4.282-2.51-5.532-1.332-1.25 1.18-.8 3.686 1.005 5.6z" fill="#2A5EBC"/><path d="M378.903 29.425c3.816 2.537 8.4 2.351 10.237-.414 1.838-2.764.235-7.062-3.58-9.598-3.816-2.537-8.4-2.352-10.238.413-1.838 2.765-.235 7.063 3.58 9.6z" fill="#2A5EBC"/><path d="M365.37 16.932c.66 2.366 3.846 3.545 7.115 2.632 3.27-.913 5.383-3.572 4.722-5.938-.66-2.367-3.847-3.546-7.116-2.633-3.268.913-5.382 3.572-4.72 5.939z" fill="#2A5EBC"/><path d="M307.28 123.178c1.815 1.926 4.305 2.527 5.56 1.343 1.256-1.183.802-3.704-1.014-5.63-1.815-1.926-4.305-2.527-5.56-1.343-1.257 1.184-.803 3.705 1.013 5.63z" fill="#2A5EBC"/><path d="M238.333 60.508c.65 2.322 3.764 3.481 6.958 2.59 3.195-.893 5.26-3.499 4.61-5.82-.648-2.323-3.763-3.482-6.958-2.59-3.194.892-5.257 3.498-4.61 5.82z" fill="#2A5EBC"/><path d="M230.282 65.817c3.08.998 6.697-1.646 8.077-5.906 1.38-4.258 0-8.52-3.083-9.518-3.08-.998-6.698 1.646-8.077 5.905-1.38 4.26 0 8.522 3.082 9.52z" fill="#2A5EBC"/><path d="M252.885 65.234c2.198 2.331 5.213 3.06 6.733 1.626 1.52-1.434.972-4.486-1.227-6.817-2.197-2.332-5.21-3.06-6.732-1.626-1.52 1.433-.97 4.486 1.227 6.817z" fill="#2A5EBC"/><path d="M111.348 190.902c1.65.298 3.38-1.637 3.864-4.32.485-2.686-.458-5.104-2.107-5.402-1.65-.298-3.38 1.637-3.864 4.32-.484 2.686.46 5.104 2.108 5.402z" fill="#2A5EBC"/><path d="M95.127 207.886c.673 1.598 3.326 2.006 5.926.91 2.6-1.094 4.162-3.277 3.49-4.875-.673-1.596-3.326-2.004-5.926-.91-2.6 1.095-4.163 3.278-3.49 4.876z" fill="#2A5EBC"/><path d="M135.59 228.006c-.3 2.852.797 5.304 2.45 5.476 1.65.173 3.23-2 3.528-4.85.298-2.853-.8-5.305-2.45-5.478-1.65-.172-3.23 2-3.53 4.852z" fill="#2A5EBC"/><path d="M152.606 239.4c.59 4.473 3.14 7.826 5.696 7.488 2.556-.337 4.148-4.237 3.557-8.71-.592-4.474-3.142-7.827-5.697-7.49-2.556.338-4.148 4.238-3.557 8.712z" fill="#2A5EBC"/><path d="M144.19 210.643c3.894 1.662 7.793 1.27 8.71-.876.915-2.146-1.498-5.234-5.392-6.896-3.894-1.66-7.793-1.268-8.71.878-.915 2.146 1.5 5.233 5.392 6.895z" fill="#2A5EBC"/><path d="M105.02 228.034c.613 1.452 2.733 1.944 4.737 1.1 2.005-.844 3.134-2.705 2.523-4.156-.61-1.452-2.732-1.945-4.736-1.1-2.004.843-3.134 2.704-2.523 4.156z" fill="#2A5EBC"/><path d="M43.3 208.43c.644 1.53 2.878 2.05 4.99 1.16 2.11-.89 3.3-2.85 2.656-4.38-.644-1.53-2.878-2.05-4.99-1.16-2.11.89-3.3 2.85-2.656 4.38z" fill="#2A5EBC"/><path d="M152.486 223.65c.874 2.626 2.943 4.3 4.62 3.742 1.68-.56 2.33-3.14 1.456-5.765-.875-2.626-2.944-4.3-4.622-3.742-1.678.56-2.33 3.14-1.454 5.766z" fill="#2A5EBC"/><path d="M139.236 111.83c.56 4.234 2.975 7.41 5.396 7.09 2.42-.32 3.93-4.014 3.37-8.25-.56-4.235-2.975-7.41-5.396-7.09-2.42.32-3.93 4.013-3.37 8.25z" fill="#2A5EBC"/><path d="M138.566 95.27c1.007 3.022 3.388 4.95 5.32 4.306 1.93-.643 2.68-3.614 1.674-6.636-1.007-3.021-3.39-4.95-5.32-4.306-1.93.643-2.68 3.614-1.674 6.636z" fill="#2A5EBC"/><path d="M125.14 193.71c.292 2.998 4.328 5.058 9.016 4.602 4.687-.456 8.25-3.255 7.96-6.252-.292-2.996-4.328-5.056-9.016-4.6-4.687.456-8.25 3.255-7.96 6.25z" fill="#2A5EBC"/><path d="M141.41 240.897c2.123 1.733 4.76 2.015 5.89.63 1.13-1.384.328-3.912-1.794-5.645-2.123-1.733-4.76-2.015-5.89-.63-1.13 1.385-.328 3.912 1.794 5.645z" fill="#2A5EBC"/><path d="M66.706 217.8c.768 1.822 3.246 2.518 5.536 1.553 2.29-.964 3.524-3.223 2.756-5.045-.767-1.823-3.245-2.52-5.535-1.554-2.29.964-3.524 3.223-2.757 5.045z" fill="#2A5EBC"/><path d="M173.484 242.116c1.652.394 3.545-1.602 4.227-4.46.683-2.856-.104-5.49-1.757-5.886-1.652-.394-3.544 1.602-4.226 4.46-.682 2.856.104 5.492 1.757 5.886z" fill="#2A5EBC"/><path d="M146.858 268.28c.725 3.74 3.247 6.395 5.633 5.932 2.386-.462 3.733-3.868 3.008-7.606-.725-3.738-3.247-6.394-5.633-5.93-2.385.462-3.732 3.867-3.007 7.605z" fill="#2A5EBC"/><path d="M45.143 129.852c.12 3.856 2.254 6.92 4.768 6.842 2.515-.078 4.457-3.268 4.337-7.124-.12-3.856-2.254-6.92-4.769-6.842-2.514.078-4.455 3.268-4.335 7.124z" fill="#2A5EBC"/><path d="M40.216 120.223c.78 3.94 3.453 6.732 5.97 6.234 2.518-.498 3.927-4.097 3.147-8.038-.78-3.942-3.453-6.733-5.97-6.235-2.518.5-3.927 4.097-3.147 8.038z" fill="#2A5EBC"/><path d="M59.654 179.248c.115 3.71 2.168 6.656 4.585 6.58 2.417-.074 4.283-3.142 4.169-6.85-.117-3.71-2.17-6.657-4.587-6.582-2.417.075-4.284 3.143-4.17 6.852z" fill="#2A5EBC"/><path d="M52.938 168.876c.723 3.73 3.24 6.38 5.623 5.918 2.383-.462 3.727-3.86 3.004-7.59-.724-3.732-3.241-6.382-5.623-5.92-2.381.462-3.726 3.86-3.002 7.592z" fill="#2A5EBC"/><path d="M169.18 283.284c2.762 2.928 6.55 3.84 8.462 2.04 1.912-1.804 1.223-5.64-1.538-8.567-2.76-2.93-6.55-3.84-8.46-2.04-1.912 1.804-1.224 5.64 1.537 8.567z" fill="#2A5EBC"/><path d="M23.16 140.616c-.312 2.972.832 5.526 2.552 5.706 1.72.18 3.367-2.083 3.677-5.054.31-2.972-.833-5.526-2.554-5.706-1.72-.18-3.367 2.083-3.677 5.054z" fill="#2A5EBC"/><path d="M20.653 128.266c-.314 3.01.844 5.598 2.588 5.78 1.744.182 3.413-2.11 3.727-5.12.315-3.01-.844-5.597-2.587-5.78-1.744-.182-3.412 2.11-3.727 5.12z" fill="#2A5EBC"/><path d="M13.738 154.305c.78 2.343 2.624 3.838 4.118 3.34 1.494-.498 2.073-2.8 1.293-5.142-.782-2.343-2.625-3.838-4.12-3.34-1.494.497-2.073 2.8-1.292 5.142z" fill="#2A5EBC"/><path d="M56.701 215.623c.431 1.563 2.846 2.262 5.394 1.562 2.549-.7 4.266-2.537 3.836-4.1-.43-1.564-2.844-2.263-5.392-1.562-2.549.7-4.266 2.536-3.836 4.1z" fill="#2A5EBC"/><path d="M34.672 169.078c1.678.4 3.6-1.624 4.292-4.523.692-2.898-.108-5.573-1.787-5.973-1.679-.4-3.6 1.624-4.292 4.522-.692 2.898.108 5.573 1.787 5.974z" fill="#2A5EBC"/><path d="M17.005 215.47c1.862 3.34 4.98 5.15 6.964 4.043 1.983-1.106 2.081-4.71.22-8.05-1.863-3.34-4.98-5.15-6.965-4.043-1.984 1.107-2.083 4.71-.22 8.05z" fill="#2A5EBC"/><path d="M40.483 187.814c3.532 5.747 8.982 8.815 12.173 6.854 3.192-1.962 2.916-8.21-.616-13.957-3.532-5.746-8.982-8.814-12.173-6.853-3.192 1.962-2.916 8.21.616 13.957z" fill="#2A5EBC"/><path d="M65.884 198.952c.462 1.68 2.715 2.524 5.032 1.887 2.317-.638 3.821-2.516 3.36-4.195-.462-1.68-2.715-2.524-5.032-1.887-2.317.638-3.822 2.515-3.36 4.194z" fill="#2A5EBC"/><path d="M30.725 222.97c-.075 2.247 2.714 4.163 6.23 4.28 3.516.117 6.427-1.61 6.501-3.857.075-2.247-2.714-4.164-6.23-4.28-3.516-.117-6.427 1.61-6.501 3.857z" fill="#2A5EBC"/><path d="M45.512 224.288c.745 2.71 4.11 4.145 7.518 3.21 3.406-.938 5.564-3.894 4.82-6.603-.746-2.71-4.111-4.145-7.518-3.21-3.407.938-5.564 3.894-4.82 6.603z" fill="#2A5EBC"/><path d="M220.31 128.35c-.072 2.182 2.635 4.042 6.046 4.156 3.41.113 6.236-1.563 6.308-3.744.073-2.182-2.634-4.042-6.045-4.156-3.413-.113-6.237 1.563-6.31 3.745z" fill="#2A5EBC"/><path d="M234.815 129.688c.76 2.76 4.188 4.226 7.658 3.27 3.47-.953 5.668-3.965 4.91-6.726-.76-2.76-4.19-4.226-7.66-3.272-3.47.954-5.667 3.966-4.908 6.728z" fill="#2A5EBC"/><path d="M195.05 273.973c-.07 2.085 2.515 3.863 5.77 3.97 3.258.11 5.954-1.493 6.024-3.577.07-2.085-2.515-3.863-5.772-3.97-3.256-.11-5.952 1.493-6.022 3.577z" fill="#2A5EBC"/><path d="M207.736 274.967c.74 2.687 4.078 4.11 7.46 3.18 3.38-.928 5.52-3.86 4.782-6.546-.738-2.686-4.078-4.11-7.458-3.18-3.38.93-5.523 3.86-4.784 6.547z" fill="#2A5EBC"/><path d="M25.614 186.875c1.892 2.007 4.488 2.634 5.798 1.4 1.309-1.235.836-3.863-1.057-5.87-1.893-2.008-4.489-2.635-5.798-1.4-1.31 1.234-.836 3.862 1.057 5.87z" fill="#2A5EBC"/><path d="M78.289 197.93c1.584.498 3.527-1.193 4.34-3.777.811-2.584.185-5.083-1.4-5.58-1.586-.5-3.53 1.192-4.341 3.776-.813 2.583-.187 5.082 1.399 5.58z" fill="#2A5EBC"/><path d="M93.97 175.547c.475 1.73 3.148 2.506 5.969 1.73 2.82-.775 4.72-2.808 4.244-4.54-.476-1.73-3.148-2.505-5.97-1.73-2.82.776-4.72 2.81-4.245 4.54z" fill="#2A5EBC"/><path d="M42.797 157.737c1.052 1.886 2.811 2.91 3.93 2.285 1.119-.624 1.173-2.658.121-4.544-1.051-1.886-2.81-2.91-3.93-2.285-1.118.623-1.173 2.658-.12 4.544z" fill="#2A5EBC"/><path d="M36.559 146.932c.708 3.66 3.177 6.257 5.514 5.804 2.336-.453 3.655-3.786 2.946-7.445-.71-3.657-3.18-6.256-5.515-5.802-2.337.453-3.656 3.786-2.946 7.444z" fill="#2A5EBC"/><path d="M67.737 180.548c-.066 1.977 2.386 3.662 5.476 3.765 3.09.103 5.65-1.416 5.715-3.393.066-1.976-2.386-3.66-5.477-3.764-3.089-.103-5.647 1.416-5.713 3.392z" fill="#2A5EBC"/><path d="M100.61 189.422c.493 1.8 2.727 2.753 4.99 2.13 2.26-.62 3.692-2.583 3.197-4.38-.494-1.8-2.728-2.754-4.99-2.132-2.26.622-3.693 2.584-3.198 4.382z" fill="#2A5EBC"/></g><defs><clipPath id="clip0_1_441"><rect width="437" height="173" fill="white"/></clipPath></defs></svg>